<svg width="336" height="336" viewBox="0 0 336 336" fill="none" xmlns="http://www.w3.org/2000/svg">
<g clip-path="url(#clip0_1065:1420)">
<rect width="336" height="336" rx="10" fill="#9DFBF8"/>
<path d="M33.001 29.2643V290.64C33.001 291.344 33.2799 292.019 33.7767 292.518C34.2735 293.016 34.9476 293.298 35.6513 293.3H194.581C195.286 293.3 195.962 293.02 196.461 292.521C196.96 292.022 197.24 291.346 197.24 290.64V29.3106C197.235 27.7048 196.595 26.166 195.46 25.0305C194.324 23.895 192.785 23.2549 191.18 23.25H153.324C152.59 23.2514 151.877 23.4893 151.289 23.9283C150.702 24.3674 150.271 24.9842 150.062 25.6872C149.856 26.3915 149.427 27.0097 148.839 27.448C148.249 27.886 147.534 28.1231 146.8 28.1245H83.4599C82.726 28.1245 82.0117 27.8872 81.4238 27.448C80.8359 27.0087 80.4058 26.391 80.1979 25.6872C79.9925 24.9804 79.5592 24.3614 78.9654 23.9265C78.3758 23.4885 77.6611 23.2513 76.9266 23.25H39.0616C37.4637 23.2548 35.9319 23.8885 34.7977 25.0141C33.6635 26.1396 33.018 27.6665 33.001 29.2643Z" fill="#263238" stroke="#263238" stroke-linecap="round" stroke-linejoin="round"/>
<path d="M33 77.064L197.239 77.064V44.3514L33 44.3514V77.064Z" fill="#D7B00F" stroke="#263238" stroke-linecap="round" stroke-linejoin="round"/>
<path d="M33 259.577H197.239L197.239 77.0633L33 77.0633L33 259.577Z" fill="white" stroke="#263238" stroke-linecap="round" stroke-linejoin="round"/>
<path d="M114.726 279.789H119.851C121.54 279.789 122.909 278.419 122.909 276.73V271.606C122.909 269.917 121.54 268.548 119.851 268.548H114.726C113.037 268.548 111.668 269.917 111.668 271.606V276.73C111.668 278.419 113.037 279.789 114.726 279.789Z" fill="white" stroke="#263238" stroke-linecap="round" stroke-linejoin="round"/>
<path d="M50.45 56.0557H42.3877" stroke="#263238" stroke-linecap="round" stroke-linejoin="round"/>
<path d="M50.45 60.4849H42.3877" stroke="#263238" stroke-linecap="round" stroke-linejoin="round"/>
<path d="M50.45 64.9146H42.3877" stroke="#263238" stroke-linecap="round" stroke-linejoin="round"/>
<path d="M100.436 95.6253H73.2655C72.774 95.6253 72.3025 95.43 71.955 95.0824C71.6074 94.7348 71.4121 94.2634 71.4121 93.7719C71.4121 93.2803 71.6074 92.8089 71.955 92.4613C72.3025 92.1137 72.774 91.9185 73.2655 91.9185H100.399C100.891 91.9185 101.362 92.1137 101.71 92.4613C102.057 92.8089 102.253 93.2803 102.253 93.7719C102.253 94.2571 102.063 94.723 101.723 95.0695C101.383 95.416 100.922 95.6156 100.436 95.6253Z" fill="#263238"/>
<path d="M166.668 100.176H72.4501C72.3208 100.177 72.1925 100.152 72.0728 100.104C71.953 100.055 71.8442 99.9823 71.7528 99.8908C71.6613 99.7994 71.589 99.6906 71.5401 99.5709C71.4911 99.4511 71.4666 99.3228 71.4678 99.1935C71.4678 99.0649 71.4933 98.9376 71.5428 98.819C71.5922 98.7003 71.6647 98.5926 71.7561 98.5022C71.8474 98.4117 71.9558 98.3402 72.0749 98.2919C72.194 98.2435 72.3216 98.2192 72.4501 98.2205H166.668C166.797 98.2138 166.927 98.2344 167.048 98.281C167.169 98.3275 167.279 98.3989 167.371 98.4907C167.462 98.5824 167.534 98.6923 167.58 98.8134C167.627 98.9345 167.648 99.064 167.641 99.1935C167.642 99.3221 167.618 99.4496 167.569 99.5687C167.521 99.6878 167.45 99.7962 167.359 99.8875C167.269 99.9789 167.161 100.051 167.042 100.101C166.924 100.15 166.796 100.176 166.668 100.176Z" fill="#263238"/>
<path d="M62.4019 103.796C66.4994 100.026 66.7645 93.6472 62.994 89.5496C59.2234 85.452 52.845 85.1869 48.7475 88.9575C44.6499 92.728 44.3848 99.1064 48.1553 103.204C51.9259 107.302 58.3043 107.567 62.4019 103.796Z" fill="white" stroke="#263238" stroke-linecap="round" stroke-linejoin="round"/>
<path d="M56.3902 106.375C59.2259 105.958 62.5991 103.595 62.5991 103.595C61.6635 103.196 60.6924 102.885 59.6985 102.668C59.4455 102.661 59.197 102.599 58.9694 102.489C58.7418 102.378 58.5403 102.22 58.3782 102.026C58.2162 101.831 58.0973 101.604 58.0293 101.361C57.9614 101.117 57.946 100.861 57.9841 100.611C59.2735 98.8747 59.9277 96.7483 59.8375 94.5875C59.7912 92.975 59.8375 89.8335 56.3902 89.3979C56.1307 89.3979 55.862 89.3979 55.5747 89.3979C55.2874 89.3979 55.0187 89.3979 54.7592 89.3979C51.3397 89.8335 51.3675 92.975 51.3119 94.5875C51.2217 96.7483 51.8759 98.8747 53.1653 100.611C53.2034 100.861 53.188 101.117 53.1201 101.361C53.0521 101.604 52.9332 101.831 52.7712 102.026C52.6091 102.22 52.4076 102.378 52.18 102.489C51.9524 102.599 51.7039 102.661 51.4509 102.668C50.46 102.885 49.4919 103.195 48.5596 103.595C48.5596 103.595 51.9235 105.958 54.7592 106.375C55.0286 106.422 55.3013 106.447 55.5747 106.449C55.8481 106.447 56.1209 106.422 56.3902 106.375Z" fill="#263238"/>
<path d="M64.3129 108.145C66.5137 108.145 68.2978 106.361 68.2978 104.161C68.2978 101.96 66.5137 100.176 64.3129 100.176C62.1122 100.176 60.3281 101.96 60.3281 104.161C60.3281 106.361 62.1122 108.145 64.3129 108.145Z" fill="#D7B00F" stroke="#263238" stroke-linecap="round" stroke-linejoin="round"/>
<path d="M64.1097 103.929L63.8316 102.159H64.7583L64.4803 103.929L66.0743 103.122L66.3708 104.049L64.6193 104.355L65.8704 105.606L65.1012 106.171L64.2765 104.587L63.4517 106.171L62.6825 105.606L63.9336 104.355L62.1729 104.049L62.4787 103.122L64.1097 103.929Z" fill="#263238"/>
<path d="M60.291 90.6401C58.243 86.7943 55.5371 88.5643 55.5371 88.5643C55.5371 88.5643 52.8774 86.8407 50.8201 90.6401C48.7629 94.4396 50.8201 98.4708 48.04 99.1936C50.3038 100.593 52.9127 101.335 55.5741 101.335C58.2356 101.335 60.8445 100.593 63.1082 99.1936C60.291 98.4708 62.3761 94.486 60.291 90.6401Z" fill="#263238"/>
<path d="M57.3819 40.8022H59.2168V37.0584H57.3819V40.8022Z" fill="white"/>
<path d="M54.0079 40.792H55.8428V35.5283H54.0079V40.792Z" fill="white"/>
<path d="M50.6456 40.8022H52.4805V34.0281H50.6456V40.8022Z" fill="white"/>
<path d="M47.2716 40.792H49.1064V32.5073H47.2716V40.792Z" fill="white"/>
<path d="M175.193 40.0327H185.072C185.681 40.0327 186.175 39.539 186.175 38.9299V34.3613C186.175 33.7523 185.681 33.2585 185.072 33.2585H175.193C174.584 33.2585 174.091 33.7523 174.091 34.3613V38.9299C174.091 39.539 174.584 40.0327 175.193 40.0327Z" fill="white"/>
<path d="M172.682 38.6143H171.755C171.509 38.6143 171.273 38.5166 171.1 38.3428C170.926 38.169 170.828 37.9333 170.828 37.6876V35.5747C170.828 35.3289 170.926 35.0932 171.1 34.9194C171.273 34.7456 171.509 34.648 171.755 34.648H172.682V38.5865V38.6143Z" fill="white"/>
<path d="M186.028 56.0736C186.596 56.6426 186.984 57.3675 187.14 58.1566C187.297 58.9457 187.217 59.7636 186.909 60.5069C186.601 61.2501 186.079 61.8853 185.41 62.3323C184.741 62.7792 183.955 63.0177 183.15 63.0177C182.346 63.0177 181.559 62.7792 180.89 62.3323C180.221 61.8853 179.7 61.2501 179.392 60.5069C179.084 59.7636 179.003 58.9457 179.16 58.1566C179.317 57.3675 179.704 56.6426 180.273 56.0736C180.65 55.6945 181.098 55.3937 181.592 55.1884C182.086 54.9831 182.615 54.8774 183.15 54.8774C183.685 54.8774 184.215 54.9831 184.708 55.1884C185.202 55.3937 185.65 55.6945 186.028 56.0736V56.0736Z" stroke="#263238" stroke-linecap="round" stroke-linejoin="round"/>
<path d="M186.026 61.8291L190.298 66.1012" stroke="#263238" stroke-linecap="round" stroke-linejoin="round"/>
<path d="M125.994 53.1357H106.969C105.996 53.1357 105.208 53.924 105.208 54.8965V66.0817C105.208 67.0542 105.996 67.8425 106.969 67.8425H125.994C126.966 67.8425 127.755 67.0542 127.755 66.0817V54.8965C127.755 53.924 126.966 53.1357 125.994 53.1357Z" fill="#263238" stroke="#D7B00F" stroke-linecap="round" stroke-linejoin="round"/>
<path d="M105.208 54.897L115.031 61.2819C115.464 61.5583 115.967 61.7051 116.481 61.7051C116.995 61.7051 117.498 61.5583 117.932 61.2819L127.755 54.897" fill="#263238"/>
<path d="M105.208 54.897L115.031 61.2819C115.464 61.5583 115.967 61.7051 116.481 61.7051C116.995 61.7051 117.498 61.5583 117.932 61.2819L127.755 54.897" stroke="#D7B00F" stroke-linecap="round" stroke-linejoin="round"/>
<path d="M107.321 64.8961L112.613 61.9214L107.321 64.8961Z" fill="#263238"/>
<path d="M107.321 64.8961L112.613 61.9214" stroke="#D7B00F" stroke-linecap="round" stroke-linejoin="round"/>
<path d="M125.644 64.8961L120.361 61.9214L125.644 64.8961Z" fill="#263238"/>
<path d="M125.644 64.8961L120.361 61.9214" stroke="#D7B00F" stroke-linecap="round" stroke-linejoin="round"/>
<path d="M91.1694 127.93H73.2655C72.774 127.93 72.3025 127.735 71.955 127.387C71.6074 127.04 71.4121 126.568 71.4121 126.077C71.4121 125.585 71.6074 125.114 71.955 124.766C72.3025 124.418 72.774 124.223 73.2655 124.223H91.1323C91.6239 124.223 92.0953 124.418 92.4429 124.766C92.7904 125.114 92.9857 125.585 92.9857 126.077C92.9858 126.562 92.7956 127.028 92.456 127.374C92.1164 127.721 91.6545 127.92 91.1694 127.93Z" fill="#263238"/>
<path d="M129.6 132.489H72.4501C72.1896 132.489 71.9397 132.386 71.7555 132.202C71.5713 132.017 71.4678 131.767 71.4678 131.507C71.4798 131.255 71.5888 131.018 71.772 130.845C71.9552 130.673 72.1982 130.578 72.4501 130.58H129.6C129.725 130.574 129.851 130.593 129.969 130.637C130.086 130.681 130.194 130.748 130.285 130.835C130.376 130.921 130.449 131.026 130.498 131.141C130.548 131.257 130.573 131.381 130.573 131.507C130.573 131.766 130.471 132.014 130.288 132.198C130.106 132.382 129.859 132.487 129.6 132.489Z" fill="#263238"/>
<path d="M62.6082 135.897C66.5996 132.014 66.6876 125.631 62.8048 121.64C58.922 117.648 52.5387 117.56 48.5473 121.443C44.556 125.326 44.4679 131.709 48.3507 135.701C52.2335 139.692 58.6168 139.78 62.6082 135.897Z" fill="white" stroke="#263238" stroke-linecap="round" stroke-linejoin="round"/>
<path d="M56.3902 138.736C59.2259 138.319 62.5991 135.956 62.5991 135.956C61.6635 135.556 60.6924 135.246 59.6985 135.029C59.4455 135.021 59.197 134.96 58.9694 134.849C58.7418 134.738 58.5403 134.581 58.3782 134.386C58.2162 134.192 58.0973 133.965 58.0293 133.721C57.9614 133.477 57.946 133.222 57.9841 132.972C59.2708 131.234 59.9247 129.108 59.8375 126.948C59.7912 125.336 59.8375 122.185 56.3902 121.758C56.1186 121.744 55.8463 121.744 55.5747 121.758C55.3031 121.744 55.0308 121.744 54.7592 121.758C51.3397 122.185 51.3675 125.336 51.3119 126.948C51.2247 129.108 51.8786 131.234 53.1653 132.972C53.2034 133.222 53.188 133.477 53.1201 133.721C53.0521 133.965 52.9332 134.192 52.7712 134.386C52.6091 134.581 52.4076 134.738 52.18 134.849C51.9524 134.96 51.7039 135.021 51.4509 135.029C50.46 135.246 49.4919 135.556 48.5596 135.956C48.5596 135.956 51.9513 138.272 54.7314 138.736C55.0008 138.782 55.2735 138.807 55.5469 138.81C55.8203 138.808 56.0931 138.783 56.3624 138.736H56.3902Z" fill="#263238"/>
<path d="M64.3129 140.45C66.5137 140.45 68.2978 138.666 68.2978 136.465C68.2978 134.264 66.5137 132.48 64.3129 132.48C62.1122 132.48 60.3281 134.264 60.3281 136.465C60.3281 138.666 62.1122 140.45 64.3129 140.45Z" fill="#D7B00F" stroke="#263238" stroke-linecap="round" stroke-linejoin="round"/>
<path d="M64.1097 136.243L63.8316 134.473H64.7583L64.4803 136.243L66.0743 135.436L66.3708 136.363L64.6193 136.66L65.8704 137.92L65.1012 138.485L64.2765 136.901L63.4517 138.485L62.6825 137.92L63.9336 136.66L62.1729 136.363L62.4787 135.436L64.1097 136.243Z" fill="#263238"/>
<path d="M109.703 160.244H73.2655C72.774 160.244 72.3025 160.049 71.955 159.702C71.6074 159.354 71.4121 158.883 71.4121 158.391C71.4121 157.899 71.6074 157.428 71.955 157.08C72.3025 156.733 72.774 156.538 73.2655 156.538H109.666C110.158 156.538 110.629 156.733 110.977 157.08C111.324 157.428 111.52 157.899 111.52 158.391C111.52 158.876 111.33 159.342 110.99 159.689C110.65 160.035 110.189 160.235 109.703 160.244Z" fill="#263238"/>
<path d="M148.134 164.803H72.4501C72.1896 164.803 71.9397 164.7 71.7555 164.516C71.5713 164.331 71.4678 164.081 71.4678 163.821C71.4678 163.692 71.4932 163.565 71.5427 163.446C71.5922 163.328 71.6647 163.22 71.756 163.13C71.8474 163.039 71.9557 162.968 72.0749 162.919C72.194 162.871 72.3215 162.847 72.4501 162.848H148.134C148.263 162.841 148.393 162.862 148.514 162.908C148.635 162.955 148.745 163.026 148.837 163.118C148.928 163.21 149 163.32 149.046 163.441C149.093 163.562 149.113 163.691 149.107 163.821C149.107 164.08 149.005 164.328 148.822 164.512C148.64 164.696 148.393 164.801 148.134 164.803Z" fill="#263238"/>
<path d="M57.991 170.779C63.3992 169.452 66.7081 163.993 65.3817 158.585C64.0554 153.177 58.596 149.868 53.1878 151.194C47.7797 152.52 44.4707 157.98 45.7971 163.388C47.1235 168.796 52.5829 172.105 57.991 170.779Z" fill="white" stroke="#263238" stroke-linecap="round" stroke-linejoin="round"/>
<path d="M56.3902 171.003C59.2259 170.586 62.5991 168.223 62.5991 168.223C61.6635 167.824 60.6924 167.513 59.6985 167.296C59.4455 167.289 59.197 167.228 58.9694 167.117C58.7418 167.006 58.5403 166.848 58.3782 166.654C58.2162 166.459 58.0973 166.233 58.0293 165.989C57.9614 165.745 57.946 165.489 57.9841 165.239C59.2708 163.501 59.9247 161.376 59.8375 159.216C59.7912 157.603 59.8375 154.452 56.3902 154.026C56.1186 154.012 55.8463 154.012 55.5747 154.026C55.3031 154.012 55.0308 154.012 54.7592 154.026C51.3397 154.452 51.3675 157.603 51.3119 159.216C51.2247 161.376 51.8786 163.501 53.1653 165.239C53.2034 165.489 53.188 165.745 53.1201 165.989C53.0521 166.233 52.9332 166.459 52.7712 166.654C52.6091 166.848 52.4076 167.006 52.18 167.117C51.9524 167.228 51.7039 167.289 51.4509 167.296C50.46 167.513 49.4919 167.823 48.5596 168.223C48.5596 168.223 51.9235 170.586 54.7592 171.003C55.0286 171.05 55.3013 171.075 55.5747 171.077C55.8481 171.075 56.1209 171.05 56.3902 171.003Z" fill="#263238"/>
<path d="M55.5746 153.386C51.9512 153.386 49.4121 155.898 48.9395 164.951C53.2448 166.397 57.9045 166.397 62.2098 164.951C61.7372 155.898 59.198 153.386 55.5746 153.386Z" fill="#263238"/>
<path d="M100.436 192.558H73.2655C72.774 192.558 72.3025 192.363 71.955 192.015C71.6074 191.667 71.4121 191.196 71.4121 190.704C71.4121 190.213 71.6074 189.741 71.955 189.394C72.3025 189.046 72.774 188.851 73.2655 188.851H100.399C100.891 188.851 101.362 189.046 101.71 189.394C102.057 189.741 102.253 190.213 102.253 190.704C102.253 191.19 102.063 191.656 101.723 192.002C101.383 192.349 100.922 192.548 100.436 192.558Z" fill="#263238"/>
<path d="M166.668 197.117H72.4501C72.3215 197.119 72.194 197.094 72.0749 197.046C71.9557 196.998 71.8474 196.926 71.756 196.836C71.6647 196.745 71.5922 196.638 71.5427 196.519C71.4932 196.4 71.4678 196.273 71.4678 196.144C71.4678 195.884 71.5713 195.634 71.7555 195.45C71.9397 195.266 72.1896 195.162 72.4501 195.162H166.668C166.927 195.165 167.174 195.269 167.356 195.453C167.539 195.637 167.641 195.885 167.641 196.144C167.647 196.274 167.627 196.403 167.58 196.525C167.534 196.646 167.462 196.756 167.371 196.847C167.279 196.939 167.169 197.01 167.048 197.057C166.927 197.103 166.797 197.124 166.668 197.117Z" fill="#263238"/>
<path d="M62.616 200.515C66.6074 196.633 66.6954 190.249 62.8126 186.258C58.9298 182.267 52.5465 182.179 48.5552 186.061C44.5638 189.944 44.4758 196.327 48.3586 200.319C52.2414 204.31 58.6246 204.398 62.616 200.515Z" fill="white" stroke="#263238" stroke-linecap="round" stroke-linejoin="round"/>
<path d="M56.3902 203.317C59.2259 202.9 62.5991 200.537 62.5991 200.537C61.6635 200.138 60.6924 199.828 59.6985 199.611C59.4455 199.603 59.197 199.542 58.9694 199.431C58.7418 199.32 58.5403 199.162 58.3782 198.968C58.2162 198.773 58.0973 198.547 58.0293 198.303C57.9614 198.059 57.946 197.804 57.9841 197.553C59.2721 195.813 59.9261 193.684 59.8375 191.521C59.7912 189.917 59.8375 186.767 56.3902 186.34C56.1194 186.31 55.8472 186.295 55.5747 186.294C55.3022 186.295 55.03 186.31 54.7592 186.34C51.3397 186.767 51.3675 189.917 51.3119 191.521C51.2233 193.684 51.8773 195.813 53.1653 197.553C53.2034 197.804 53.188 198.059 53.1201 198.303C53.0521 198.547 52.9332 198.773 52.7712 198.968C52.6091 199.162 52.4076 199.32 52.18 199.431C51.9524 199.542 51.7039 199.603 51.4509 199.611C50.46 199.827 49.4919 200.138 48.5596 200.537C48.5596 200.537 51.9235 202.9 54.7592 203.317C55.0292 203.36 55.3016 203.384 55.5747 203.392C55.8479 203.385 56.1203 203.36 56.3902 203.317Z" fill="#263238"/>
<path d="M64.3129 205.078C66.5137 205.078 68.2978 203.294 68.2978 201.093C68.2978 198.892 66.5137 197.108 64.3129 197.108C62.1122 197.108 60.3281 198.892 60.3281 201.093C60.3281 203.294 62.1122 205.078 64.3129 205.078Z" fill="#D7B00F" stroke="#263238" stroke-linecap="round" stroke-linejoin="round"/>
<path d="M64.1097 200.824L63.8316 199.063H64.7583L64.4803 200.824L66.0743 200.027L66.3708 200.954L64.6193 201.25L65.8704 202.502L65.1012 203.076L64.2765 201.491L63.4517 203.076L62.6825 202.502L63.9336 201.25L62.1729 200.954L62.4787 200.027L64.1097 200.824Z" fill="#263238"/>
<path d="M81.9024 224.919H73.2655C72.774 224.919 72.3025 224.723 71.955 224.376C71.6074 224.028 71.4121 223.557 71.4121 223.065C71.4121 222.574 71.6074 222.102 71.955 221.755C72.3025 221.407 72.774 221.212 73.2655 221.212H81.8653C82.3569 221.212 82.8283 221.407 83.1759 221.755C83.5234 222.102 83.7187 222.574 83.7187 223.065C83.7188 223.55 83.5286 224.016 83.189 224.363C82.8494 224.709 82.3875 224.909 81.9024 224.919Z" fill="#263238"/>
<path d="M157.401 229.423H72.4501C72.3215 229.424 72.194 229.4 72.0749 229.351C71.9557 229.303 71.8474 229.231 71.756 229.141C71.6647 229.05 71.5922 228.943 71.5427 228.824C71.4932 228.705 71.4678 228.578 71.4678 228.45C71.4678 228.189 71.5713 227.939 71.7555 227.755C71.9397 227.571 72.1896 227.467 72.4501 227.467H157.401C157.66 227.47 157.907 227.574 158.089 227.758C158.272 227.942 158.374 228.191 158.374 228.45C158.38 228.579 158.36 228.709 158.313 228.83C158.267 228.951 158.195 229.061 158.104 229.152C158.012 229.244 157.902 229.316 157.781 229.362C157.66 229.409 157.53 229.429 157.401 229.423Z" fill="#263238"/>
<path d="M62.6209 232.834C66.6123 228.951 66.7003 222.568 62.8175 218.576C58.9347 214.585 52.5514 214.497 48.56 218.38C44.5687 222.263 44.4806 228.646 48.3634 232.637C52.2463 236.629 58.6295 236.717 62.6209 232.834Z" fill="white" stroke="#263238" stroke-linecap="round" stroke-linejoin="round"/>
<path d="M56.3902 235.631C59.2259 235.205 62.5991 232.851 62.5991 232.851C61.6635 232.452 60.6924 232.142 59.6985 231.925C59.446 231.916 59.1982 231.853 58.9713 231.742C58.7445 231.631 58.5436 231.473 58.3818 231.279C58.2201 231.085 58.101 230.859 58.0325 230.615C57.964 230.372 57.9475 230.117 57.9841 229.867C59.2721 228.127 59.9261 225.998 59.8375 223.834C59.7912 222.231 59.8375 219.081 56.3902 218.654C56.1194 218.624 55.8472 218.609 55.5747 218.608C55.3022 218.609 55.03 218.624 54.7592 218.654C51.3397 219.081 51.3675 222.231 51.3119 223.834C51.2233 225.998 51.8773 228.127 53.1653 229.867C53.2019 230.117 53.1854 230.372 53.1169 230.615C53.0484 230.859 52.9293 231.085 52.7676 231.279C52.6058 231.473 52.4049 231.631 52.1781 231.742C51.9512 231.853 51.7034 231.916 51.4509 231.925C50.46 232.141 49.4919 232.452 48.5596 232.851C48.5596 232.851 51.9235 235.205 54.7592 235.631C55.0293 235.671 55.3018 235.692 55.5747 235.696C55.8477 235.693 56.1201 235.671 56.3902 235.631Z" fill="#263238"/>
<path d="M100.436 257.186H73.2655C72.774 257.186 72.3025 256.991 71.955 256.644C71.6074 256.296 71.4121 255.824 71.4121 255.333C71.4121 254.841 71.6074 254.37 71.955 254.022C72.3025 253.675 72.774 253.479 73.2655 253.479H100.399C100.891 253.479 101.362 253.675 101.71 254.022C102.057 254.37 102.253 254.841 102.253 255.333C102.253 255.818 102.063 256.284 101.723 256.631C101.383 256.977 100.922 257.177 100.436 257.186Z" fill="#263238"/>
<path d="M65.6572 257.928C65.6581 258.481 65.6116 259.033 65.5182 259.578H45.6312C45.5378 259.033 45.4913 258.481 45.4922 257.928C45.4922 255.254 46.5545 252.69 48.4453 250.799C50.3361 248.908 52.9007 247.846 55.5747 247.846C58.2488 247.846 60.8133 248.908 62.7041 250.799C64.595 252.69 65.6572 255.254 65.6572 257.928Z" fill="white" stroke="#263238" stroke-linecap="round" stroke-linejoin="round"/>
<path d="M59.8369 256.139C59.8806 257.307 59.7078 258.472 59.3273 259.577H51.821C51.4405 258.472 51.2677 257.307 51.3113 256.139C51.3669 254.536 51.3113 251.385 54.7586 250.959C55.3005 250.897 55.8477 250.897 56.3896 250.959C59.8184 251.385 59.7906 254.573 59.8369 256.139Z" fill="#263238"/>
<path d="M170.152 254.647C177.506 254.647 183.468 248.685 183.468 241.33C183.468 233.976 177.506 228.014 170.152 228.014C162.797 228.014 156.835 233.976 156.835 241.33C156.835 248.685 162.797 254.647 170.152 254.647Z" fill="#D7B00F" stroke="#263238" stroke-linecap="round" stroke-linejoin="round"/>
<path d="M175.971 237.308L174.182 235.519L166.135 243.566L167.924 245.355L175.971 237.308Z" fill="#263238"/>
<path d="M165.324 244.37L164.342 247.141L167.113 246.159L165.324 244.37Z" fill="#263238"/>
<rect x="33.5" y="44.5" width="163" height="217" fill="white"/>
<rect x="45" y="57" width="140" height="175.422" fill="#9DFBF8"/>
<rect x="52" y="75" width="115" height="8" rx="4" fill="#777777"/>
<rect x="52" y="88" width="86.0544" height="8" rx="4" fill="#777777"/>
<rect x="52" y="192" width="115" height="3.80952" rx="1.90476" fill="#777777"/>
<rect x="52" y="199.81" width="86.0544" height="3.80952" rx="1.90476" fill="#777777"/>
<rect x="52" y="208" width="115" height="3.80952" rx="1.90476" fill="#777777"/>
<rect x="52" y="215.81" width="86.0544" height="3.80952" rx="1.90476" fill="#777777"/>
<path d="M110 144C110 160.016 97.0163 173 81 173C64.9837 173 52 160.016 52 144C52 127.984 64.9837 115 81 115C97.0163 115 110 127.984 110 144ZM58.7782 144C58.7782 156.273 68.7272 166.222 81 166.222C93.2728 166.222 103.222 156.273 103.222 144C103.222 131.727 93.2728 121.778 81 121.778C68.7272 121.778 58.7782 131.727 58.7782 144Z" fill="white"/>
<path d="M110 144C110 150.709 107.674 157.211 103.417 162.397C99.161 167.584 93.238 171.134 86.6576 172.443C80.0772 173.752 73.2466 172.738 67.3295 169.576C61.4124 166.413 56.775 161.296 54.2075 155.098C51.64 148.899 51.3011 142.002 53.2487 135.582C55.1963 129.161 59.3099 123.615 64.8885 119.887C70.467 116.16 77.1655 114.482 83.8425 115.14C90.5195 115.797 96.7619 118.75 101.506 123.494L96.7132 128.287C93.0779 124.651 88.2945 122.389 83.1781 121.885C78.0617 121.381 72.9289 122.667 68.6542 125.523C64.3795 128.379 61.2274 132.63 59.735 137.549C58.2426 142.469 58.5023 147.754 60.4697 152.504C62.4371 157.254 65.9906 161.174 70.5247 163.598C75.0588 166.021 80.2929 166.798 85.3353 165.795C90.3776 164.792 94.9162 162.072 98.1777 158.097C101.439 154.123 103.222 149.141 103.222 144H110Z" fill="#777777"/>
<path d="M156.839 131.319C156.839 138.122 151.314 143.638 144.5 143.638C137.686 143.638 132.161 138.122 132.161 131.319C132.161 124.515 137.686 119 144.5 119C151.314 119 156.839 124.515 156.839 131.319Z" fill="#05948F"/>
<path d="M167 169C167 166.05 166.418 163.129 165.287 160.403C164.157 157.678 162.499 155.202 160.41 153.116C158.321 151.03 155.84 149.375 153.11 148.246C150.381 147.117 147.455 146.536 144.5 146.536C141.545 146.536 138.619 147.117 135.89 148.246C133.16 149.375 130.679 151.03 128.59 153.116C126.501 155.202 124.843 157.678 123.713 160.403C122.582 163.129 122 166.05 122 169H167Z" fill="#05948F"/>
<rect x="33.5" y="44.5" width="163" height="217" stroke="#263238"/>
<path d="M299.55 232.748C299.55 232.748 318.352 241.418 324.626 245.763C330.9 250.108 329.398 266.575 331.428 275.733C333.459 284.89 335.753 290.677 333.459 293.093C331.164 295.51 327.672 299.835 327.672 299.835C327.672 299.835 330.068 322.982 331.042 340.83C332.017 358.678 322.352 364.931 314.636 369.764C306.92 374.596 298.25 375.551 282.331 374.576C266.413 373.602 255.346 365.906 253.905 362.515C252.463 359.124 238.961 322.028 244.747 300.809C250.534 279.591 269.824 234.271 278.981 229.438C288.139 224.606 299.55 232.748 299.55 232.748Z" fill="#263238"/>
<path d="M291.913 375.936C288.989 375.936 285.821 375.815 282.126 375.591C266.024 374.617 254.491 366.82 252.806 362.921C252.664 362.556 237.415 323.286 243.608 300.545C249.395 279.347 268.705 233.539 278.349 228.545C287.649 223.651 298.918 231.144 300.055 231.935C301.598 232.646 319.081 240.768 325.213 245.012C329.903 248.26 330.573 257.032 331.304 265.54C331.477 268.891 331.864 272.228 332.461 275.53C332.928 277.783 333.436 279.834 333.883 281.621C335.345 287.591 336.319 291.53 334.106 293.804C331.893 296.078 329.477 299.103 328.644 300.139C328.969 303.327 331.101 324.403 331.994 340.748C332.989 359.429 322.674 365.886 315.121 370.596C309.091 374.353 302.654 375.936 291.913 375.936ZM285.253 228.951C283.184 228.918 281.14 229.399 279.304 230.352C270.938 234.737 251.608 278.9 245.557 301.073C240.156 320.911 252.237 356.424 254.674 362.129C255.974 365.114 266.857 372.627 282.248 373.561C298.776 374.576 306.776 373.378 313.964 368.891C321.476 364.2 330.817 358.353 329.883 340.89C328.949 323.428 326.532 300.18 326.512 299.956C326.485 299.696 326.557 299.434 326.715 299.225C326.857 299.042 330.167 294.799 332.583 292.383C334.005 290.961 333.091 287.266 331.832 282.23C331.365 280.382 330.857 278.311 330.39 276.017C329.779 272.628 329.385 269.203 329.213 265.763C328.624 258.128 327.954 249.519 324.055 246.758C317.964 242.514 299.324 233.905 299.121 233.824L298.959 233.722C294.891 230.95 290.162 229.304 285.253 228.951Z" fill="#263238"/>
<path d="M153.944 362.048L150.573 386.15C150.573 386.15 169.375 397.724 183.345 402.536C197.315 407.348 213.802 411.226 213.802 411.226L217.66 403.104L220.564 412.262C220.564 412.262 229.234 411.307 243.224 404.546C254.995 398.403 266.423 391.625 277.457 384.241L276.97 359.652L267.813 199.083L231.264 183.184L195.386 186.047L168.38 200.991L153.944 362.048Z" fill="white"/>
<path d="M220.482 413.196C220.265 413.197 220.053 413.129 219.877 413.001C219.702 412.873 219.572 412.692 219.507 412.485L217.477 405.805L214.735 411.653C214.635 411.863 214.465 412.033 214.254 412.132C214.043 412.232 213.805 412.257 213.578 412.201C213.416 412.201 196.969 408.282 183.121 403.511C169.273 398.739 150.227 387.064 150.024 387.064C149.859 386.955 149.728 386.803 149.645 386.623C149.563 386.444 149.532 386.245 149.557 386.049L152.928 361.967L167.385 200.951C167.405 200.787 167.463 200.63 167.554 200.492C167.646 200.355 167.769 200.24 167.913 200.159L194.918 185.194C195.046 185.133 195.183 185.091 195.324 185.073L230.999 182.189C231.159 182.147 231.327 182.147 231.487 182.189L268.137 198.23C268.309 198.305 268.457 198.426 268.565 198.58C268.672 198.735 268.735 198.915 268.746 199.103L277.903 359.652L278.391 384.282C278.391 384.453 278.35 384.621 278.273 384.772C278.195 384.924 278.082 385.055 277.944 385.155C266.86 392.527 255.392 399.305 243.588 405.46C229.598 412.221 220.949 413.237 220.583 413.277L220.482 413.196ZM217.578 402.008C217.781 402.023 217.975 402.099 218.134 402.226C218.293 402.353 218.411 402.524 218.471 402.719L221.111 411.044C228.586 409.535 235.82 407.015 242.614 403.551C254.18 397.546 265.412 390.917 276.259 383.693L275.792 359.652L266.675 199.753L230.837 184.199L195.629 187.042L169.233 201.621L154.816 362.13L151.547 385.561C154.776 387.592 171.182 397.257 183.568 401.521C195.588 405.683 209.578 409.155 213.03 409.988L216.542 402.536C216.638 402.351 216.789 402.2 216.975 402.105C217.161 402.01 217.372 401.976 217.578 402.008Z" fill="#263238"/>
<path d="M253.538 192.91L231.081 183.164L195.385 186.047L181.659 193.662C184.218 202.535 193.842 229.845 215.162 231.855C235.081 233.743 248.543 205.479 253.538 192.91Z" fill="white"/>
<path d="M217.051 232.971C216.402 232.971 215.752 232.971 215.021 232.87C192.99 230.718 183.204 202.535 180.706 193.926C180.638 193.706 180.649 193.47 180.738 193.258C180.828 193.046 180.989 192.873 181.193 192.768L194.919 185.154C195.047 185.092 195.184 185.051 195.325 185.032L231.001 182.149C231.161 182.107 231.328 182.107 231.488 182.149L253.823 191.895C254.065 191.998 254.258 192.192 254.36 192.434C254.462 192.677 254.466 192.949 254.372 193.195C249.661 205.418 236.605 232.971 217.051 232.971ZM182.879 194.169C185.6 203.266 195.061 228.951 215.366 230.86C234.168 232.626 247.245 206.027 252.321 193.459L231.021 184.22L195.813 187.063L182.879 194.169Z" fill="#263238"/>
<path d="M194.431 189.215C194.431 189.215 204.117 202.149 213.457 205.723C222.797 209.296 231.041 193.174 233.538 188.87C236.036 184.565 236.767 183.124 236.767 183.124L195.386 186.047C195.386 186.047 190.837 184.565 194.431 189.215Z" fill="#263238"/>
<path d="M216.239 207.285C215.161 207.278 214.094 207.071 213.091 206.676C203.609 203.042 194.066 190.432 193.619 189.843C192.584 188.483 191.589 186.777 192.34 185.559C193.091 184.341 194.777 184.808 195.528 185.031L236.706 182.107C236.884 182.09 237.064 182.123 237.226 182.202C237.387 182.281 237.523 182.403 237.619 182.554C237.709 182.708 237.755 182.883 237.755 183.062C237.755 183.24 237.709 183.415 237.619 183.569C237.619 183.569 236.868 185.092 234.371 189.376L233.721 190.493C230.797 195.752 224.279 207.285 216.239 207.285ZM194.127 186.838C194.419 187.474 194.794 188.068 195.244 188.605C195.244 188.747 204.868 201.336 213.822 204.849C221.64 207.854 229.193 194.554 232.097 189.539L232.746 188.422C233.843 186.554 234.594 185.234 235.081 184.361L195.487 187.062C195.36 187.093 195.228 187.093 195.101 187.062C194.786 186.95 194.459 186.875 194.127 186.838Z" fill="#263238"/>
<path d="M231.081 183.164C231.081 183.164 230.127 390.495 231.569 390.962C233.01 391.429 277.863 373.135 280.3 371.206C282.203 369.574 283.981 367.803 285.62 365.906L286.574 288.261C286.574 288.261 301.518 297.906 305.863 298.881C310.209 299.855 323.711 297.439 324.666 292.119C325.62 286.799 308.747 243.388 304.361 229.926C300.697 219.498 296.35 209.324 291.346 199.469C289.315 195.124 270.127 192.728 258.553 189.316C246.98 185.905 231.081 183.164 231.081 183.164Z" fill="#05948F"/>
<path d="M231.529 391.977H231.245C230.189 391.612 229.661 391.45 229.762 286.921C229.762 235.631 230.067 183.712 230.067 183.204C230.069 183.054 230.103 182.906 230.166 182.77C230.229 182.633 230.32 182.512 230.432 182.413C230.549 182.321 230.683 182.256 230.827 182.221C230.97 182.186 231.12 182.182 231.265 182.21C231.427 182.21 247.367 185.133 258.859 188.484C262.494 189.56 266.981 190.514 271.306 191.489C283.489 194.128 290.859 195.976 292.281 199.184C292.707 200.139 293.377 201.499 294.209 203.245C298.528 211.775 302.246 220.595 305.336 229.641C306.636 233.702 309.032 240.301 311.793 247.916C320.037 270.799 326.291 288.525 325.621 292.261C325.416 293.115 325.036 293.917 324.504 294.616C323.973 295.315 323.302 295.896 322.535 296.322C317.389 299.218 311.474 300.452 305.6 299.855C301.946 299.043 291.509 292.586 287.529 290.088L286.595 365.886C286.588 366.123 286.502 366.352 286.352 366.536C284.679 368.485 282.859 370.304 280.91 371.977C279.346 373.216 264.483 379.429 255.935 382.901C235.996 391.125 232.382 391.977 231.529 391.977ZM231.996 184.362C231.691 252.24 231.366 377.724 232.3 389.764C238.757 387.876 277.417 372.079 279.529 370.394C281.294 368.888 282.943 367.252 284.463 365.5L285.418 288.241C285.419 288.056 285.471 287.875 285.567 287.718C285.664 287.56 285.802 287.432 285.966 287.347C286.121 287.262 286.296 287.217 286.473 287.217C286.651 287.217 286.825 287.262 286.981 287.347C291.042 290.007 302.534 297.073 305.946 297.824C311.276 298.294 316.625 297.17 321.316 294.596C321.849 294.314 322.319 293.928 322.7 293.461C323.08 292.993 323.362 292.454 323.529 291.875C324.159 288.444 315.509 264.464 309.783 248.586C307.022 240.89 304.626 234.25 303.306 230.169C300.242 221.193 296.558 212.441 292.281 203.976C291.448 202.271 290.758 200.89 290.25 199.915C289.133 197.418 278.9 195.184 270.676 193.377C266.311 192.423 261.803 191.448 258.108 190.352C248.727 187.611 235.996 185.113 232.097 184.382L231.996 184.362Z" fill="#263238"/>
<path d="M231.567 225.58L236.867 217.884C236.867 217.884 249.882 228.971 251.344 225.113C252.806 221.255 242.857 190.108 241.192 184.118C239.527 178.128 230.593 178.331 230.106 180.747C229.618 183.163 231.567 225.58 231.567 225.58Z" fill="#05948F"/>
<path d="M250.086 226.92C246.613 226.92 239.811 221.621 237.07 219.367L232.4 226.169C232.278 226.343 232.106 226.475 231.906 226.548C231.706 226.621 231.489 226.63 231.283 226.575C231.082 226.51 230.905 226.387 230.774 226.22C230.644 226.054 230.567 225.852 230.552 225.641C230.349 221.275 228.644 183.001 229.131 180.544C229.395 179.164 231.06 178.25 233.436 178.169C235.323 177.98 237.219 178.441 238.81 179.475C240.401 180.508 241.592 182.053 242.187 183.854C242.512 184.991 243.101 187.001 243.872 189.58C249.964 209.6 253.375 222.595 252.278 225.458C252.17 225.803 251.972 226.113 251.705 226.356C251.437 226.598 251.109 226.765 250.756 226.839C250.537 226.898 250.312 226.926 250.086 226.92ZM236.867 216.768C237.111 216.774 237.347 216.859 237.537 217.012C242.329 221.072 248.563 225.235 250.248 224.809C251.446 221.864 244.522 198.758 241.923 190.067C241.151 187.488 240.542 185.458 240.238 184.321C239.283 180.829 235.547 180.037 233.497 180.098C231.811 180.098 231.141 180.727 231.121 180.869C230.796 182.534 231.69 205.6 232.441 222.433L236.035 217.215C236.117 217.098 236.222 216.999 236.345 216.926C236.467 216.852 236.604 216.805 236.745 216.788L236.867 216.768Z" fill="#263238"/>
<path d="M258.574 189.417C258.574 189.417 257.6 258.453 260.99 276.22C264.381 293.986 286.534 342.758 286.534 342.758V324.484C286.534 324.484 273.518 276.768 271.59 262.778C269.661 248.788 270.148 192.869 270.148 192.869L258.574 189.417Z" fill="#263238"/>
<path d="M286.534 343.774C286.341 343.775 286.152 343.72 285.99 343.615C285.828 343.511 285.699 343.361 285.621 343.185C284.707 341.154 263.285 294.169 259.976 276.403C256.666 258.636 257.519 192.24 257.559 189.417C257.562 189.26 257.601 189.106 257.671 188.965C257.741 188.825 257.842 188.702 257.966 188.605C258.094 188.515 258.24 188.453 258.394 188.425C258.549 188.397 258.707 188.403 258.859 188.443L270.433 191.834C270.644 191.895 270.829 192.023 270.961 192.199C271.092 192.375 271.164 192.589 271.164 192.808C271.164 193.377 270.697 248.829 272.605 262.575C274.514 276.321 287.387 323.692 287.509 324.159C287.529 324.253 287.529 324.35 287.509 324.444V342.718C287.51 342.949 287.432 343.174 287.288 343.355C287.144 343.536 286.943 343.662 286.717 343.713L286.534 343.774ZM259.57 190.778C259.468 200.463 258.92 259.814 261.986 276.058C264.707 290.454 280.057 325.723 285.519 338.027V324.586C284.626 321.276 272.463 276.524 270.595 262.88C268.768 249.702 269.072 200.626 269.113 193.58L259.57 190.778Z" fill="#263238"/>
<path d="M199.669 189.742C199.669 189.742 200.441 384.18 200.441 386.901C200.441 389.622 196.177 388.058 193.091 386.515C190.004 384.972 158.999 374.495 150.451 371.022C141.903 367.55 140.765 369.845 141.151 365.987C141.537 362.129 141.557 349.317 141.557 347.388C141.557 345.459 144.258 305.946 144.258 305.946C144.258 305.946 125.984 312.525 115.202 308.261C104.42 303.997 99.3236 298.981 100.501 295.103C101.679 291.225 122.288 240.869 123.75 236.22C125.212 231.57 129.171 205.235 131.507 202.92C133.842 200.605 186.106 187.427 189.212 185.092C191.345 183.573 193.959 182.887 196.563 183.163C197.72 183.163 198.898 182.392 199.669 189.742Z" fill="#05948F"/>
<path d="M198.797 389.399C196.642 389.178 194.562 388.485 192.706 387.368C191.244 386.637 182.817 383.673 173.883 380.526C164.36 377.155 154.513 373.683 150.167 371.917C147.966 371.017 145.68 370.337 143.345 369.886C140.766 369.338 139.954 368.891 140.259 365.825C140.604 362.373 140.644 351.734 140.644 347.327C140.644 345.581 142.675 314.698 143.243 307.327C138.634 308.809 124.319 312.85 114.939 309.155C103.933 304.83 98.2076 299.449 99.6289 294.759C100.238 292.728 106.228 277.743 112.015 263.307C117.233 250.291 122.167 238.007 122.878 235.855C123.426 234.169 124.36 229.276 125.335 224.078C127.67 211.895 129.294 203.773 130.858 202.149C132.116 200.89 141.558 198.088 161.315 192.565C172.909 189.296 187.345 185.235 188.685 184.22C190.882 182.666 193.56 181.946 196.239 182.189H196.888C199.264 182.047 200.137 183.732 200.767 189.682C200.767 191.712 201.538 384.16 201.538 386.84C201.555 387.242 201.467 387.64 201.282 387.997C201.096 388.353 200.821 388.655 200.482 388.871C199.992 389.224 199.401 389.409 198.797 389.399ZM144.279 304.931C144.499 304.927 144.715 304.998 144.888 305.134C145.024 305.234 145.133 305.366 145.204 305.518C145.275 305.671 145.306 305.839 145.294 306.007C144.36 319.672 142.594 345.886 142.594 347.388C142.594 351.835 142.594 362.536 142.188 366.089C142.092 366.544 142.092 367.014 142.188 367.47C142.67 367.665 143.175 367.802 143.69 367.876C146.144 368.375 148.545 369.109 150.858 370.069C155.142 371.835 165.416 375.449 174.492 378.658C183.569 381.866 191.954 384.749 193.538 385.602C197.254 387.45 198.939 387.49 199.325 387.267C199.325 387.267 199.325 387.104 199.325 386.901C199.325 384.241 198.574 193.885 198.553 189.804C197.944 184.098 197.213 184.159 196.828 184.159H195.995C193.764 183.96 191.536 184.573 189.721 185.885C188.157 187.062 178.046 189.946 161.68 194.555C149.132 198.088 133.497 202.494 132.096 203.631C130.695 204.768 128.543 217.154 127.162 224.504C126.106 229.987 125.132 234.657 124.604 236.525C123.873 238.758 118.939 251.063 113.72 264.099C108.218 277.825 101.984 293.378 101.375 295.368C100.583 298.007 103.812 302.718 115.588 307.307C125.944 311.368 143.731 305.033 143.913 304.972C144.032 304.937 144.156 304.923 144.279 304.931Z" fill="#263238"/>
<path d="M144.279 306.961H144.035C143.773 306.894 143.547 306.727 143.407 306.495C143.267 306.264 143.222 305.986 143.284 305.723C143.284 305.337 152.99 266.169 154.127 261.194C154.478 258.407 154.368 255.581 153.802 252.829C153.783 252.696 153.791 252.56 153.825 252.43C153.858 252.299 153.918 252.177 153.999 252.069C154.08 251.962 154.181 251.871 154.297 251.803C154.413 251.735 154.542 251.69 154.675 251.672C154.808 251.653 154.944 251.661 155.074 251.694C155.205 251.728 155.327 251.787 155.434 251.868C155.542 251.949 155.632 252.051 155.701 252.167C155.769 252.283 155.814 252.411 155.832 252.545C156.419 255.548 156.522 258.626 156.137 261.661C154.979 266.636 145.375 305.804 145.294 306.21C145.235 306.431 145.102 306.626 144.918 306.763C144.733 306.899 144.508 306.969 144.279 306.961Z" fill="#263238"/>
<path d="M153.516 246.23C153.283 246.226 153.058 246.144 152.878 245.997C152.697 245.849 152.572 245.645 152.522 245.418C151.933 242.474 151.425 240.342 151.425 240.342C151.364 240.08 151.409 239.806 151.55 239.578C151.69 239.349 151.916 239.186 152.176 239.123C152.306 239.09 152.441 239.084 152.573 239.104C152.705 239.124 152.831 239.17 152.945 239.24C153.059 239.31 153.157 239.403 153.234 239.512C153.312 239.621 153.366 239.744 153.395 239.875C153.395 239.875 153.923 242.027 154.511 245.012C154.56 245.275 154.505 245.547 154.357 245.77C154.209 245.994 153.981 246.151 153.72 246.21L153.516 246.23Z" fill="#263238"/>
<path d="M194.25 180.463C192.381 182.711 191.054 185.357 190.371 188.199C188.435 197.706 185.718 207.037 182.249 216.098C180.806 219.123 179.519 222.22 178.392 225.377C180.725 226.038 183.224 225.761 185.356 224.606C188.849 222.575 194.656 219.57 194.656 219.57L199.285 224.626L199.671 189.763C199.671 189.763 200.057 177.357 194.25 180.463Z" fill="#05948F"/>
<path d="M180.908 226.657C179.94 226.665 178.976 226.535 178.045 226.271C177.917 226.231 177.799 226.166 177.698 226.078C177.596 225.991 177.514 225.884 177.456 225.763C177.354 225.516 177.354 225.239 177.456 224.992C178.604 221.788 179.912 218.643 181.375 215.57C184.765 206.639 187.414 197.444 189.294 188.078C189.987 185.039 191.378 182.203 193.355 179.793C193.442 179.69 193.545 179.601 193.659 179.529C194.236 179.146 194.909 178.931 195.601 178.91C196.294 178.888 196.978 179.06 197.578 179.408C200.746 181.438 200.603 188.91 200.583 189.763L200.299 224.626C200.294 224.828 200.229 225.024 200.114 225.19C199.998 225.356 199.837 225.485 199.649 225.56C199.458 225.631 199.249 225.644 199.051 225.597C198.852 225.55 198.672 225.445 198.532 225.296L194.471 220.829C192.847 221.723 188.644 223.976 185.882 225.499C184.35 226.303 182.638 226.701 180.908 226.657ZM179.71 224.626C181.476 224.883 183.278 224.562 184.847 223.712C188.339 221.682 194.147 218.677 194.147 218.677C194.348 218.574 194.576 218.538 194.799 218.574C195.022 218.611 195.228 218.718 195.385 218.88L198.289 222.047L198.654 189.743C198.654 186.961 198.248 182.169 196.624 181.154C196.461 181.052 195.974 180.748 194.918 181.154C193.188 183.237 191.958 185.689 191.324 188.321C189.381 197.919 186.664 207.344 183.202 216.504C181.375 220.362 180.258 223.184 179.71 224.626Z" fill="#263238"/>
<path d="M183.406 150.25C183.406 150.25 177.193 142.128 176.807 146.758C176.421 151.387 175.264 157.214 178.37 161.093C179.826 163.114 181.669 164.826 183.792 166.128C183.792 166.128 188.827 179.286 192.299 182.778C195.772 186.27 197.721 194.007 207.406 197.885C217.092 201.763 222.127 199.428 227.163 195.854C229.599 194.169 238.391 180.748 239.569 178.027C240.746 175.306 241.112 165.641 241.112 165.641C241.112 165.641 247.691 156.341 248.076 151.306C248.462 146.27 247.691 143.184 246.046 143.184H242.554C242.554 143.184 247.203 124.219 246.818 118.006C246.432 111.793 235.203 99.4273 226.675 93.6404C218.147 87.8536 200.279 89.7622 191.041 95.5694C181.802 101.377 172.076 113.844 174.391 118.818C176.705 123.793 183.406 150.25 183.406 150.25Z" fill="white"/>
<path d="M216.482 200.91C213.233 200.848 210.027 200.159 207.04 198.88C201.615 196.618 197.139 192.551 194.37 187.367C193.58 186 192.647 184.72 191.588 183.549C188.279 180.24 183.812 169.032 182.959 166.879C180.881 165.468 179.061 163.709 177.578 161.681C174.654 158.026 175.162 153.031 175.548 148.605C175.548 147.935 175.69 147.265 175.751 146.575C175.872 144.991 176.603 144.544 177.212 144.28C178.39 143.935 179.913 144.95 181.273 146.311C179.243 138.717 175.182 122.92 173.476 119.224C170.837 113.519 180.806 100.747 190.512 94.696C200.218 88.6452 218.167 86.5742 227.243 92.6656C235.162 98.0666 247.386 110.94 247.832 117.843C248.177 123.265 244.888 137.681 243.771 142.067H246.147C246.458 142.072 246.765 142.141 247.048 142.27C247.331 142.4 247.584 142.586 247.792 142.818C249.274 144.443 249.314 148.321 249.091 151.306C248.726 156.138 243.182 164.341 242.106 165.884C242.106 167.752 241.619 175.732 240.502 178.351C239.386 180.971 230.35 194.778 227.751 196.626C224.563 199.245 220.605 200.75 216.482 200.91ZM177.903 146.351C177.903 146.351 177.903 146.554 177.903 146.839C177.903 147.488 177.781 148.179 177.72 148.869C177.294 152.93 176.827 157.438 179.243 160.463C180.62 162.353 182.343 163.965 184.319 165.214C184.545 165.328 184.72 165.524 184.806 165.763C184.806 165.884 189.822 178.758 193.111 182.006C194.264 183.251 195.284 184.612 196.157 186.067C198.725 190.877 202.858 194.667 207.873 196.808C217.335 200.585 222.086 198.209 226.675 194.961C228.705 193.519 237.517 180.382 238.715 177.58C239.572 173.691 240.021 169.724 240.056 165.742C240.063 165.546 240.127 165.356 240.238 165.194C240.238 165.092 246.675 156.057 247.02 151.366C247.345 147.204 246.817 145.031 246.248 144.422H242.614C242.461 144.423 242.31 144.389 242.173 144.322C242.036 144.255 241.916 144.157 241.822 144.036C241.724 143.916 241.657 143.774 241.625 143.622C241.593 143.47 241.598 143.313 241.639 143.163C241.639 142.981 246.248 124.28 245.863 118.31C245.477 112.341 234.736 100.524 226.167 94.6757C217.599 88.828 200.482 91.1224 191.649 96.7062C182.268 102.574 173.375 114.473 175.405 118.676C177.74 123.732 184.116 149.133 184.38 150.229C184.431 150.454 184.403 150.689 184.303 150.896C184.202 151.103 184.035 151.27 183.827 151.369C183.619 151.468 183.384 151.494 183.16 151.441C182.936 151.389 182.736 151.263 182.593 151.082C181.398 149.172 179.788 147.555 177.883 146.351H177.903Z" fill="#263238"/>
<path d="M215.912 178.047C215.428 178.041 214.945 177.986 214.471 177.884C211.909 177.487 209.602 176.111 208.034 174.047C207.898 173.814 207.858 173.538 207.923 173.276C207.987 173.015 208.151 172.789 208.379 172.646C208.494 172.576 208.621 172.529 208.754 172.509C208.886 172.488 209.022 172.494 209.152 172.526C209.282 172.558 209.405 172.616 209.513 172.696C209.621 172.775 209.712 172.876 209.78 172.991C211.068 174.569 212.902 175.605 214.918 175.895C215.962 176.085 217.041 175.911 217.973 175.401C218.904 174.891 219.632 174.076 220.034 173.093C220.145 172.848 220.348 172.657 220.6 172.562C220.851 172.467 221.129 172.475 221.374 172.585C221.497 172.638 221.608 172.715 221.701 172.811C221.794 172.908 221.866 173.022 221.913 173.147C221.961 173.272 221.982 173.406 221.977 173.539C221.972 173.673 221.939 173.804 221.882 173.925C221.369 175.1 220.539 176.108 219.484 176.836C218.43 177.564 217.193 177.984 215.912 178.047Z" fill="#263238"/>
<path d="M215.183 184.179C212.019 184.304 208.903 183.367 206.331 181.519C206.228 181.435 206.143 181.331 206.081 181.213C206.019 181.096 205.981 180.967 205.969 180.834C205.958 180.702 205.973 180.568 206.015 180.442C206.056 180.315 206.122 180.198 206.209 180.098C206.379 179.892 206.624 179.761 206.89 179.734C207.156 179.708 207.422 179.787 207.63 179.956C209.848 181.476 212.496 182.244 215.183 182.149C217.907 182.216 220.562 181.292 222.656 179.55C222.847 179.358 223.106 179.251 223.376 179.251C223.647 179.251 223.906 179.358 224.097 179.55C224.288 179.741 224.396 180 224.396 180.27C224.396 180.541 224.288 180.8 224.097 180.991C221.623 183.121 218.447 184.257 215.183 184.179Z" fill="#263238"/>
<path d="M183.406 151.265C183.253 151.263 183.103 151.227 182.966 151.161C182.83 151.094 182.709 150.998 182.614 150.879L181.822 149.905C181.656 149.694 181.58 149.427 181.61 149.161C181.641 148.894 181.775 148.651 181.984 148.484C182.192 148.315 182.458 148.236 182.724 148.262C182.99 148.289 183.235 148.42 183.406 148.626C183.893 149.215 184.197 149.621 184.197 149.621C184.363 149.831 184.439 150.098 184.409 150.365C184.379 150.631 184.244 150.874 184.035 151.042C183.854 151.181 183.634 151.259 183.406 151.265Z" fill="#263238"/>
<path d="M226.777 93.7018C218.249 87.8946 200.381 89.8236 191.142 95.6307C181.904 101.438 172.178 113.905 174.492 118.88C176.807 123.854 183.406 150.25 183.406 150.25C184.242 150.463 185.126 150.376 185.905 150.005C186.683 149.634 187.308 149.003 187.67 148.22C188.827 145.519 186.878 141.641 188.827 138.068C190.391 135.245 194.919 135.469 197.701 134.819C195.67 136.139 193.091 138.595 196.178 140.017C201.213 142.332 204.3 138.859 214.777 133.418C225.254 127.976 226.391 122.575 226.391 122.575C226.391 122.575 231.427 126.839 231.427 131.489C231.427 136.139 231.041 142.717 233.762 143.489C236.483 144.26 238.391 144.667 238.391 144.667C238.391 144.667 237.234 149.702 239.955 150.088C241.985 150.372 242.675 145.641 242.919 143.103H242.655C242.655 143.103 247.305 124.139 246.919 117.925C246.533 111.712 235.305 99.5089 226.777 93.7018Z" fill="#263238"/>
<path d="M184.361 151.366C183.957 151.368 183.555 151.32 183.163 151.224C182.983 151.182 182.818 151.092 182.686 150.963C182.553 150.834 182.458 150.672 182.412 150.493C182.412 150.229 175.833 124.097 173.579 119.305C170.939 113.6 180.909 100.828 190.615 94.7771C200.32 88.7263 218.27 86.6552 227.346 92.7466C235.265 98.1477 247.488 111.021 247.935 117.924C248.28 123.589 244.686 139.102 243.874 142.696C243.975 142.867 244.018 143.067 243.996 143.265C243.61 147.326 242.798 149.722 241.559 150.676C241.323 150.862 241.053 150.999 240.764 151.08C240.474 151.16 240.172 151.181 239.874 151.143C239.468 151.107 239.074 150.981 238.723 150.773C238.372 150.566 238.071 150.283 237.843 149.945C237.135 148.577 236.913 147.009 237.214 145.498C236.381 145.315 235.062 144.991 233.458 144.524C230.29 143.63 230.351 138.046 230.392 133.112V131.549C230.055 128.81 228.76 126.278 226.737 124.402C225.661 126.534 222.676 130.493 215.224 134.392C212.645 135.711 210.554 136.93 208.706 137.986C203.082 141.194 199.995 142.96 195.731 140.991C195.2 140.82 194.727 140.503 194.368 140.075C194.009 139.648 193.777 139.127 193.701 138.574C193.685 137.793 193.943 137.032 194.432 136.422C193.524 136.426 192.628 136.626 191.805 137.008C190.981 137.39 190.25 137.945 189.66 138.635C188.908 140.322 188.668 142.194 188.97 144.016C189.181 145.558 189.036 147.128 188.544 148.605C188.219 149.442 187.642 150.158 186.893 150.653C186.143 151.148 185.258 151.397 184.361 151.366ZM184.219 149.336C184.735 149.399 185.258 149.295 185.711 149.039C186.164 148.783 186.523 148.389 186.736 147.915C187.074 146.72 187.157 145.468 186.98 144.239C186.649 142.027 186.981 139.766 187.934 137.742C189.376 135.163 192.686 134.716 195.325 134.351C196.097 134.351 196.848 134.148 197.478 134.006C197.709 133.945 197.955 133.971 198.169 134.079C198.382 134.188 198.548 134.371 198.635 134.595C198.731 134.811 198.747 135.054 198.68 135.281C198.613 135.508 198.468 135.704 198.269 135.833C196.584 136.93 195.731 138.026 195.772 138.513C195.813 139.001 196.361 139.143 196.604 139.244C199.914 140.788 202.209 139.468 207.711 136.321C209.579 135.244 211.772 134.046 214.31 132.686C224.097 127.61 225.397 122.534 225.397 122.534C225.44 122.366 225.524 122.212 225.64 122.085C225.757 121.957 225.904 121.86 226.067 121.803C226.231 121.749 226.407 121.738 226.577 121.77C226.748 121.802 226.907 121.876 227.041 121.985C227.265 122.168 232.442 126.615 232.442 131.671V133.255C232.442 136.605 232.442 142.229 234.026 142.696C236.666 143.447 238.574 143.833 238.595 143.854C238.727 143.875 238.853 143.924 238.965 143.998C239.077 144.071 239.172 144.167 239.244 144.28C239.321 144.395 239.373 144.525 239.397 144.661C239.422 144.797 239.418 144.937 239.387 145.072C239.028 146.342 239.085 147.694 239.549 148.93C239.611 149.021 239.692 149.097 239.787 149.153C239.882 149.209 239.988 149.244 240.097 149.255C240.747 148.808 241.458 147.224 241.843 143.894C241.752 143.774 241.69 143.635 241.662 143.487C241.634 143.339 241.64 143.186 241.681 143.041C241.681 142.859 246.29 124.158 245.904 118.188C245.519 112.219 234.777 100.401 226.209 94.5537C217.64 88.706 200.523 91.0004 191.691 96.5842C182.31 102.452 173.417 114.351 175.447 118.554C177.579 123.102 183.203 145.133 184.219 149.336Z" fill="#263238"/>
<path d="M226.35 161.092C224.148 161.124 222 160.408 220.258 159.062C220.087 158.88 219.988 158.642 219.981 158.393C219.974 158.144 220.059 157.901 220.219 157.71C220.38 157.519 220.605 157.394 220.852 157.359C221.099 157.324 221.35 157.38 221.558 157.518C221.781 157.681 226.187 161.194 233.131 156.666C233.357 156.517 233.633 156.465 233.898 156.521C234.162 156.576 234.394 156.734 234.542 156.96C234.691 157.186 234.743 157.462 234.688 157.727C234.632 157.991 234.474 158.223 234.248 158.371C231.94 160.035 229.193 160.981 226.35 161.092Z" fill="#263238"/>
<path d="M198.472 161.093C196.271 161.123 194.124 160.408 192.381 159.062C192.279 158.975 192.196 158.87 192.136 158.751C192.075 158.632 192.039 158.502 192.028 158.369C192.008 158.101 192.094 157.835 192.269 157.631C192.444 157.426 192.693 157.299 192.962 157.278C193.23 157.257 193.496 157.344 193.701 157.519C193.904 157.681 198.33 161.194 205.274 156.666C205.386 156.586 205.513 156.529 205.648 156.499C205.782 156.469 205.922 156.467 206.057 156.492C206.192 156.518 206.321 156.571 206.435 156.648C206.55 156.725 206.647 156.825 206.722 156.941C206.796 157.057 206.846 157.187 206.869 157.323C206.892 157.459 206.887 157.598 206.854 157.732C206.821 157.866 206.761 157.991 206.678 158.101C206.595 158.211 206.49 158.303 206.371 158.372C204.064 160.038 201.316 160.985 198.472 161.093Z" fill="#263238"/>
<path d="M191.914 153.559C191.718 153.559 191.528 153.501 191.365 153.392C191.203 153.284 191.076 153.13 191 152.95C190.89 152.705 190.882 152.426 190.977 152.175C191.072 151.924 191.263 151.721 191.508 151.61C195.646 149.932 200.186 149.508 204.563 150.392C204.693 150.425 204.815 150.483 204.921 150.563C205.028 150.644 205.118 150.744 205.186 150.859C205.254 150.974 205.299 151.102 205.317 151.234C205.336 151.366 205.328 151.501 205.294 151.63C205.264 151.759 205.207 151.88 205.129 151.987C205.051 152.094 204.952 152.184 204.839 152.252C204.725 152.32 204.599 152.364 204.469 152.383C204.338 152.402 204.204 152.395 204.076 152.361C200.131 151.604 196.052 151.992 192.32 153.478C192.192 153.536 192.053 153.564 191.914 153.559Z" fill="#263238"/>
<path d="M232.584 152.808C232.464 152.837 232.339 152.837 232.218 152.808C228.847 151.54 225.152 151.412 221.701 152.443C221.45 152.525 221.176 152.507 220.939 152.391C220.701 152.276 220.518 152.072 220.428 151.824C220.338 151.575 220.348 151.301 220.457 151.061C220.566 150.82 220.764 150.631 221.01 150.534C224.929 149.323 229.142 149.466 232.97 150.94C233.217 151.044 233.414 151.239 233.52 151.485C233.626 151.731 233.633 152.009 233.538 152.26C233.447 152.432 233.309 152.574 233.14 152.671C232.971 152.768 232.778 152.816 232.584 152.808Z" fill="#263238"/>
<path d="M110.594 293.662C110.594 293.662 134.594 292.099 138.086 292.099C141.579 292.099 144.178 299.469 145.051 303.733C145.924 307.997 146.208 317.662 146.208 317.662C146.208 317.662 134.98 333.541 127.243 336.261C119.507 338.982 102.451 333.926 98.1874 330.454C93.9234 326.982 90.4513 311.084 92.7661 305.662C95.0808 300.241 100.116 296.748 102.066 294.819" fill="#05948F"/>
<path d="M121.68 337.946C112.867 337.946 101.07 334.007 97.5373 331.124C92.8875 327.327 89.3139 311.063 91.8316 305.154C93.7267 301.342 96.4537 298.005 99.8114 295.388C100.421 294.86 100.948 294.393 101.355 294.007C101.543 293.818 101.799 293.712 102.065 293.712C102.332 293.712 102.587 293.818 102.776 294.007C102.964 294.195 103.07 294.451 103.07 294.718C103.07 294.984 102.964 295.24 102.776 295.428C102.349 295.855 101.801 296.342 101.131 296.91C98.0203 299.348 95.4833 302.44 93.6997 305.966C91.5677 310.921 94.918 326.373 98.8368 329.56C102.756 332.748 119.669 337.682 126.898 335.205C133.7 332.809 143.649 319.367 145.172 317.256C145.172 315.489 144.705 307.489 144.035 303.814C143.223 299.306 140.543 293.012 138.065 293.012C134.654 293.012 110.877 294.555 110.634 294.575C110.5 294.584 110.367 294.565 110.24 294.522C110.114 294.478 109.998 294.41 109.898 294.322C109.798 294.233 109.716 294.126 109.658 294.005C109.599 293.885 109.565 293.754 109.558 293.621C109.547 293.489 109.562 293.356 109.603 293.229C109.645 293.103 109.711 292.986 109.798 292.886C109.885 292.786 109.991 292.704 110.11 292.645C110.229 292.587 110.359 292.553 110.492 292.545C111.487 292.545 134.593 290.981 138.065 290.981C142.736 290.981 145.395 299.976 146.025 303.449C146.66 308.116 147.053 312.812 147.203 317.52C147.224 317.745 147.158 317.97 147.02 318.149C146.553 318.819 135.507 334.393 127.548 337.114C125.652 337.716 123.668 337.998 121.68 337.946Z" fill="#263238"/>
<path d="M170.918 246.067L182.837 295.347L205.334 290.393L195.73 242.413L170.918 246.067Z" fill="#263238"/>
<path d="M182.838 296.362C182.609 296.364 182.387 296.289 182.206 296.149C182.026 296.009 181.898 295.812 181.843 295.591L169.944 246.291C169.906 246.157 169.899 246.016 169.924 245.878C169.948 245.741 170.004 245.611 170.086 245.499C170.163 245.38 170.264 245.278 170.383 245.201C170.502 245.124 170.637 245.073 170.777 245.052L195.589 241.418C195.847 241.376 196.111 241.439 196.324 241.591C196.537 241.743 196.681 241.972 196.726 242.23L206.33 290.19C206.379 290.453 206.323 290.725 206.176 290.948C206.028 291.172 205.8 291.329 205.538 291.388L183.061 296.342L182.838 296.362ZM172.178 246.961L183.589 294.21L204.137 289.601L194.919 243.55L172.178 246.961Z" fill="#263238"/>
<path d="M158.228 291.632L164.807 285.053C165.961 280.452 167.384 275.923 169.071 271.49C170.799 268.518 172.74 265.674 174.878 262.982L176.421 268.017C176.421 268.017 191.142 261.418 193.477 261.418C194.344 261.486 195.151 261.888 195.727 262.54C196.303 263.192 196.603 264.042 196.564 264.911C196.564 266.068 180.32 273.825 180.32 273.825L178.391 276.525C178.391 276.525 192.32 271.104 194.635 269.561C196.161 268.555 197.873 267.864 199.67 267.53C199.67 267.53 201.701 270.617 200.828 272.16C199.954 273.703 199.284 275.652 199.284 275.652C199.445 276.672 199.333 277.715 198.96 278.677C198.093 281.187 196.468 283.365 194.31 284.911C194.31 284.911 189.213 291.145 186.492 293.865C183.772 296.586 174.107 298.901 174.107 298.901L155.832 310.515C155.832 310.515 153.132 308.18 153.132 301.601C153.177 299.663 153.659 297.761 154.541 296.035C155.424 294.309 156.684 292.804 158.228 291.632Z" fill="white"/>
<path d="M155.893 311.611C155.655 311.61 155.424 311.524 155.244 311.367C155.122 311.266 152.178 308.647 152.178 301.682C152.192 299.585 152.684 297.518 153.617 295.64C154.549 293.761 155.897 292.119 157.558 290.839L163.894 284.504C165.025 279.924 166.45 275.42 168.158 271.022C169.917 267.983 171.899 265.079 174.087 262.332C174.199 262.185 174.348 262.071 174.52 262.003C174.692 261.935 174.879 261.915 175.061 261.946C175.243 261.985 175.412 262.072 175.551 262.196C175.69 262.321 175.794 262.48 175.853 262.656L177.071 266.596C180.95 264.87 191.285 260.382 193.478 260.382C194.61 260.45 195.671 260.961 196.431 261.805C197.191 262.648 197.588 263.756 197.538 264.89C197.538 265.56 197.538 266.555 183.65 273.296C187.192 271.956 190.657 270.417 194.026 268.687C195.697 267.661 197.552 266.971 199.488 266.656C199.681 266.628 199.879 266.657 200.056 266.74C200.232 266.823 200.381 266.957 200.483 267.123C200.868 267.712 202.676 270.799 201.701 272.768C201.112 273.926 200.544 275.306 200.3 275.895C200.36 276.974 200.222 278.054 199.894 279.083C198.998 281.782 197.28 284.132 194.98 285.804C194.269 286.657 189.721 292.159 187.183 294.718C184.645 297.276 176.056 299.591 174.472 299.976L156.401 311.51C156.244 311.587 156.069 311.622 155.893 311.611ZM174.493 265.235C172.825 267.389 171.319 269.662 169.985 272.037C168.323 276.397 166.919 280.852 165.782 285.377C165.748 285.558 165.655 285.722 165.518 285.844L158.939 292.443C158.892 292.453 158.844 292.453 158.797 292.443C157.369 293.546 156.213 294.961 155.417 296.58C154.622 298.199 154.208 299.98 154.208 301.784C154.048 304.442 154.707 307.085 156.097 309.357L173.559 298.21L173.863 298.088C176.482 297.459 183.731 295.388 185.782 293.317C188.422 290.677 193.477 284.504 193.538 284.443C193.596 284.372 193.665 284.311 193.741 284.261C195.705 282.859 197.182 280.878 197.965 278.596C198.247 277.802 198.364 276.959 198.31 276.118C198.228 275.91 198.228 275.678 198.31 275.469C198.31 275.469 199.122 273.438 199.894 271.895C200.178 271.327 199.691 269.865 199.122 268.849C197.721 269.157 196.387 269.714 195.183 270.494C192.787 272.078 179.285 277.337 178.716 277.56C178.511 277.643 178.285 277.657 178.071 277.599C177.858 277.542 177.669 277.416 177.534 277.241C177.398 277.067 177.323 276.853 177.32 276.632C177.318 276.411 177.387 276.195 177.518 276.017L179.548 273.316C179.65 273.171 179.791 273.058 179.955 272.992C185.339 270.557 190.568 267.79 195.61 264.707C195.61 263.956 195.041 262.514 193.579 262.514C192.117 262.514 182.98 266.311 176.949 269.012C176.818 269.07 176.676 269.099 176.533 269.099C176.39 269.098 176.248 269.067 176.118 269.007C175.987 268.948 175.871 268.861 175.776 268.754C175.682 268.646 175.611 268.519 175.569 268.382L174.493 265.235Z" fill="#263238"/>
<path d="M180.3 285.276C180.138 285.273 179.978 285.234 179.834 285.16C179.689 285.086 179.564 284.98 179.467 284.849C179.315 284.627 179.256 284.355 179.301 284.089C179.347 283.824 179.494 283.587 179.711 283.428C183.609 280.707 198.574 273.276 199.203 272.89C199.447 272.774 199.726 272.755 199.983 272.838C200.239 272.921 200.455 273.1 200.584 273.337C200.704 273.582 200.722 273.864 200.635 274.123C200.547 274.382 200.361 274.595 200.117 274.717C199.975 274.717 184.645 282.453 180.889 285.093C180.715 285.211 180.51 285.275 180.3 285.276Z" fill="#263238"/>
<path d="M180.888 291.916C180.693 291.915 180.502 291.857 180.34 291.749C180.177 291.641 180.05 291.487 179.975 291.307C179.917 291.186 179.885 291.055 179.88 290.921C179.874 290.787 179.896 290.654 179.943 290.529C179.991 290.404 180.063 290.29 180.155 290.193C180.248 290.096 180.359 290.019 180.482 289.967L193.904 284.058C194.026 284.001 194.158 283.97 194.293 283.966C194.427 283.962 194.561 283.986 194.687 284.035C194.812 284.084 194.926 284.159 195.022 284.253C195.117 284.348 195.193 284.461 195.244 284.586C195.354 284.831 195.362 285.11 195.267 285.361C195.171 285.612 194.981 285.815 194.736 285.926L181.294 291.835C181.167 291.893 181.028 291.92 180.888 291.916Z" fill="#263238"/>
<path d="M161.315 287.733C161.315 287.733 156.279 293.947 156.665 299.754C157.051 305.561 161.315 315.246 161.315 315.246C157.932 317.477 154.703 319.933 151.65 322.597C148.929 325.317 142.736 326.861 140.401 321.825C138.066 316.789 134.309 305.581 135.751 298.982C137.193 292.383 140.401 290.454 141.964 290.068C143.528 289.683 158.614 288.139 161.315 287.733Z" fill="#05948F"/>
<path d="M145.578 326.149C145.128 326.149 144.68 326.108 144.238 326.027C143.191 325.849 142.207 325.41 141.377 324.749C140.546 324.089 139.896 323.229 139.486 322.251C137.131 317.174 133.131 305.702 134.776 298.738C136.603 290.92 140.542 289.377 141.699 289.073C142.857 288.768 147.425 288.301 154.045 287.57C157.273 287.205 160.136 286.88 161.172 286.738C161.374 286.708 161.58 286.741 161.764 286.83C161.947 286.92 162.099 287.063 162.2 287.241C162.301 287.419 162.346 287.623 162.329 287.826C162.312 288.03 162.234 288.224 162.106 288.382C162.106 288.382 157.334 294.352 157.679 299.672C158.024 304.992 162.207 314.738 162.248 314.839C162.344 315.055 162.36 315.299 162.293 315.526C162.226 315.753 162.081 315.949 161.882 316.078C158.553 318.283 155.371 320.704 152.359 323.327C150.53 325.081 148.111 326.088 145.578 326.149ZM159.161 289.032L154.288 289.58C149.557 290.108 143.08 290.819 142.106 291.042C141.131 291.266 138.268 292.342 136.644 299.164C135.243 305.134 138.674 315.712 141.232 321.357C141.498 322.08 141.952 322.717 142.549 323.203C143.146 323.689 143.862 324.005 144.623 324.119C145.769 324.248 146.93 324.122 148.022 323.75C149.114 323.378 150.109 322.769 150.938 321.966C153.818 319.417 156.871 317.069 160.075 314.941C157.919 310.104 156.436 304.993 155.669 299.753C155.723 295.908 156.941 292.171 159.161 289.032Z" fill="#263238"/>
<path d="M285.578 264.647C285.578 264.647 278.817 244.342 276.401 240.545C273.984 236.748 270.147 234.271 268.705 234.271C267.264 234.271 258.553 231.854 256.157 231.854C253.761 231.854 249.416 233.296 250.37 237.641L251.345 241.987C251.345 241.987 250.37 249.702 250.37 251.631C250.37 253.56 254.228 256.931 254.228 256.931C254.408 259.55 254.892 262.139 255.67 264.647C256.644 266.576 272.076 270.921 272.076 270.921L273.517 272.85L276.401 274.291L285.578 264.647Z" fill="white"/>
<path d="M276.4 275.387C276.246 275.383 276.095 275.348 275.954 275.286L273.07 273.824C272.928 273.759 272.803 273.662 272.705 273.54L271.466 271.875C265.497 270.189 255.771 267.164 254.776 265.174C253.933 262.694 253.421 260.113 253.253 257.499C252.157 256.504 249.355 253.743 249.355 251.712C249.355 249.682 250.167 243.306 250.309 242.108L249.375 238.047C249.171 237.273 249.147 236.462 249.306 235.677C249.464 234.892 249.8 234.154 250.289 233.519C251.035 232.712 251.943 232.072 252.955 231.641C253.966 231.211 255.058 230.999 256.157 231.022C258.809 231.307 261.436 231.796 264.015 232.484C265.561 232.881 267.126 233.2 268.705 233.438C270.735 233.438 274.796 236.321 277.273 240.179C279.751 244.037 286.248 263.672 286.532 264.545C286.595 264.718 286.607 264.905 286.567 265.085C286.528 265.264 286.438 265.429 286.309 265.56L277.152 275.205C276.933 275.358 276.665 275.424 276.4 275.387ZM274.187 272.118L276.218 273.134L284.34 264.463C283.223 261.154 277.558 244.504 275.466 241.154C273.945 238.473 271.519 236.422 268.624 235.367C266.89 235.155 265.174 234.823 263.487 234.372C261.051 233.73 258.575 233.255 256.075 232.951C255.28 232.935 254.49 233.082 253.753 233.382C253.017 233.682 252.349 234.13 251.791 234.697C251.492 235.091 251.29 235.55 251.202 236.037C251.114 236.524 251.142 237.025 251.283 237.499L252.238 241.844C252.268 241.957 252.268 242.076 252.238 242.189C252.238 242.189 251.283 249.864 251.283 251.712C251.283 252.605 253.111 254.778 254.796 256.24C254.996 256.417 255.12 256.664 255.141 256.93C255.292 259.425 255.742 261.893 256.481 264.281C257.273 265.296 265.294 268.057 272.238 270.007C272.458 270.072 272.65 270.208 272.786 270.392L274.187 272.118Z" fill="#263238"/>
<path d="M293.761 273.357C293.761 273.357 306.797 280.606 310.634 282.048C314.472 283.489 319.325 283.977 324.624 292.2C329.924 300.424 327.995 313.906 324.624 321.134C321.254 328.363 310.167 330.211 303 330.211C295.832 330.211 288.523 315.266 284.726 310.941C280.929 306.617 274.573 294.048 274.573 294.048L293.761 273.357Z" fill="#05948F"/>
<path d="M303.001 331.225C297.153 331.225 291.874 323.246 287.61 316.809C286.48 315.006 285.246 313.27 283.914 311.611C280.016 307.225 273.904 295.022 273.64 294.514C273.545 294.328 273.509 294.117 273.538 293.91C273.567 293.703 273.66 293.51 273.803 293.357L293.092 272.626C293.246 272.458 293.454 272.349 293.679 272.315C293.904 272.282 294.135 272.327 294.331 272.443C294.453 272.443 307.326 279.651 311.062 281.052L312.767 281.641C315.449 282.364 317.96 283.615 320.153 285.32C322.346 287.024 324.177 289.149 325.539 291.57C331.163 300.261 328.971 314.291 325.539 321.479C322.108 328.667 311.671 331.225 303.001 331.225ZM275.772 294.23C277.092 296.809 282.188 306.616 285.437 310.251C286.828 311.988 288.116 313.805 289.295 315.692C293.072 321.398 298.249 329.195 303.001 329.195C311.123 329.195 320.828 326.961 323.772 320.626C326.92 313.865 329.031 300.707 323.772 292.687C322.539 290.457 320.867 288.499 318.857 286.933C316.847 285.366 314.541 284.222 312.077 283.57L310.29 282.961C306.879 281.682 296.747 276.139 294.046 274.596L275.772 294.23Z" fill="#263238"/>
<path d="M287.508 261.743C287.508 261.743 277.864 267.063 273.518 272.849C269.173 278.636 265.396 283.936 265.396 286.819C265.396 289.702 273.518 300.809 273.518 300.809L298.595 274.778C298.595 274.778 292.848 265.235 287.508 261.743Z" fill="#05948F"/>
<path d="M273.519 301.784C273.372 301.771 273.23 301.728 273.101 301.658C272.972 301.588 272.858 301.493 272.767 301.377C271.366 299.469 264.361 289.865 264.361 286.778C264.361 283.692 268.016 278.535 272.767 272.2C277.194 266.291 286.676 261.052 286.981 260.829C287.137 260.734 287.316 260.684 287.499 260.684C287.681 260.684 287.86 260.734 288.016 260.829C293.458 264.301 299.184 273.783 299.428 274.189C299.54 274.38 299.587 274.603 299.561 274.822C299.536 275.042 299.439 275.248 299.285 275.408L274.209 301.459C274.029 301.651 273.782 301.767 273.519 301.784ZM287.448 262.9C285.417 264.098 277.905 268.626 274.331 273.418C270.96 277.905 266.331 284.057 266.331 286.778C266.331 288.423 270.392 294.697 273.62 299.185L297.316 274.596C295.976 272.524 291.57 265.864 287.448 262.941V262.9Z" fill="#263238"/>
</g>
<defs>
<clipPath id="clip0_1065:1420">
<rect width="336" height="336" rx="10" fill="white"/>
</clipPath>
</defs>
</svg>
