<svg width="336" height="336" viewBox="0 0 336 336" fill="none" xmlns="http://www.w3.org/2000/svg">
<g clip-path="url(#clip0_1065:1486)">
<rect width="336" height="336" rx="10" fill="#FFEA97"/>
<path d="M33.001 29.2643V290.64C33.001 291.344 33.2799 292.019 33.7767 292.518C34.2735 293.016 34.9476 293.298 35.6513 293.3H194.581C195.286 293.3 195.962 293.02 196.461 292.521C196.96 292.022 197.24 291.346 197.24 290.64V29.3106C197.235 27.7048 196.595 26.166 195.46 25.0305C194.324 23.895 192.785 23.2549 191.18 23.25H153.324C152.59 23.2514 151.877 23.4893 151.289 23.9283C150.702 24.3674 150.271 24.9842 150.062 25.6872C149.856 26.3915 149.427 27.0097 148.839 27.448C148.249 27.886 147.534 28.1231 146.8 28.1245H83.4599C82.726 28.1245 82.0117 27.8872 81.4238 27.448C80.8359 27.0087 80.4058 26.391 80.1979 25.6872C79.9925 24.9804 79.5592 24.3614 78.9654 23.9265C78.3758 23.4885 77.6611 23.2513 76.9266 23.25H39.0616C37.4637 23.2548 35.9319 23.8885 34.7977 25.0141C33.6635 26.1396 33.018 27.6665 33.001 29.2643Z" fill="#263238" stroke="#263238" stroke-linecap="round" stroke-linejoin="round"/>
<path d="M33 77.064L197.239 77.064V44.3514L33 44.3514V77.064Z" fill="#D7B00F" stroke="#263238" stroke-linecap="round" stroke-linejoin="round"/>
<path d="M33 259.577H197.239L197.239 77.0633L33 77.0633L33 259.577Z" fill="white" stroke="#263238" stroke-linecap="round" stroke-linejoin="round"/>
<path d="M114.726 279.789H119.851C121.54 279.789 122.909 278.419 122.909 276.73V271.606C122.909 269.917 121.54 268.548 119.851 268.548H114.726C113.037 268.548 111.668 269.917 111.668 271.606V276.73C111.668 278.419 113.037 279.789 114.726 279.789Z" fill="white" stroke="#263238" stroke-linecap="round" stroke-linejoin="round"/>
<path d="M50.45 56.0557H42.3877" stroke="#263238" stroke-linecap="round" stroke-linejoin="round"/>
<path d="M50.45 60.4849H42.3877" stroke="#263238" stroke-linecap="round" stroke-linejoin="round"/>
<path d="M50.45 64.9146H42.3877" stroke="#263238" stroke-linecap="round" stroke-linejoin="round"/>
<path d="M100.436 95.6253H73.2655C72.774 95.6253 72.3025 95.43 71.955 95.0824C71.6074 94.7348 71.4121 94.2634 71.4121 93.7719C71.4121 93.2803 71.6074 92.8089 71.955 92.4613C72.3025 92.1137 72.774 91.9185 73.2655 91.9185H100.399C100.891 91.9185 101.362 92.1137 101.71 92.4613C102.057 92.8089 102.253 93.2803 102.253 93.7719C102.253 94.2571 102.063 94.723 101.723 95.0695C101.383 95.416 100.922 95.6156 100.436 95.6253Z" fill="#263238"/>
<path d="M166.668 100.176H72.4501C72.3208 100.177 72.1925 100.152 72.0728 100.104C71.953 100.055 71.8442 99.9823 71.7528 99.8908C71.6613 99.7994 71.589 99.6906 71.5401 99.5709C71.4911 99.4511 71.4666 99.3228 71.4678 99.1935C71.4678 99.0649 71.4933 98.9376 71.5428 98.819C71.5922 98.7003 71.6647 98.5926 71.7561 98.5022C71.8474 98.4117 71.9558 98.3402 72.0749 98.2919C72.194 98.2435 72.3216 98.2192 72.4501 98.2205H166.668C166.797 98.2138 166.927 98.2344 167.048 98.281C167.169 98.3275 167.279 98.3989 167.371 98.4907C167.462 98.5824 167.534 98.6923 167.58 98.8134C167.627 98.9345 167.648 99.064 167.641 99.1935C167.642 99.3221 167.618 99.4496 167.569 99.5687C167.521 99.6878 167.45 99.7962 167.359 99.8875C167.269 99.9789 167.161 100.051 167.042 100.101C166.924 100.15 166.796 100.176 166.668 100.176Z" fill="#263238"/>
<path d="M62.4019 103.796C66.4994 100.026 66.7645 93.6472 62.994 89.5496C59.2234 85.452 52.845 85.1869 48.7475 88.9575C44.6499 92.728 44.3848 99.1064 48.1553 103.204C51.9259 107.302 58.3043 107.567 62.4019 103.796Z" fill="white" stroke="#263238" stroke-linecap="round" stroke-linejoin="round"/>
<path d="M56.3902 106.375C59.2259 105.958 62.5991 103.595 62.5991 103.595C61.6635 103.196 60.6924 102.885 59.6985 102.668C59.4455 102.661 59.197 102.599 58.9694 102.489C58.7418 102.378 58.5403 102.22 58.3782 102.026C58.2162 101.831 58.0973 101.604 58.0293 101.361C57.9614 101.117 57.946 100.861 57.9841 100.611C59.2735 98.8747 59.9277 96.7483 59.8375 94.5875C59.7912 92.975 59.8375 89.8335 56.3902 89.3979C56.1307 89.3979 55.862 89.3979 55.5747 89.3979C55.2874 89.3979 55.0187 89.3979 54.7592 89.3979C51.3397 89.8335 51.3675 92.975 51.3119 94.5875C51.2217 96.7483 51.8759 98.8747 53.1653 100.611C53.2034 100.861 53.188 101.117 53.1201 101.361C53.0521 101.604 52.9332 101.831 52.7712 102.026C52.6091 102.22 52.4076 102.378 52.18 102.489C51.9524 102.599 51.7039 102.661 51.4509 102.668C50.46 102.885 49.4919 103.195 48.5596 103.595C48.5596 103.595 51.9235 105.958 54.7592 106.375C55.0286 106.422 55.3013 106.447 55.5747 106.449C55.8481 106.447 56.1209 106.422 56.3902 106.375Z" fill="#263238"/>
<path d="M64.3129 108.145C66.5137 108.145 68.2978 106.361 68.2978 104.161C68.2978 101.96 66.5137 100.176 64.3129 100.176C62.1122 100.176 60.3281 101.96 60.3281 104.161C60.3281 106.361 62.1122 108.145 64.3129 108.145Z" fill="#D7B00F" stroke="#263238" stroke-linecap="round" stroke-linejoin="round"/>
<path d="M64.1097 103.929L63.8316 102.159H64.7583L64.4803 103.929L66.0743 103.122L66.3708 104.049L64.6193 104.355L65.8704 105.606L65.1012 106.171L64.2765 104.587L63.4517 106.171L62.6825 105.606L63.9336 104.355L62.1729 104.049L62.4787 103.122L64.1097 103.929Z" fill="#263238"/>
<path d="M60.291 90.6401C58.243 86.7943 55.5371 88.5643 55.5371 88.5643C55.5371 88.5643 52.8774 86.8407 50.8201 90.6401C48.7629 94.4396 50.8201 98.4708 48.04 99.1936C50.3038 100.593 52.9127 101.335 55.5741 101.335C58.2356 101.335 60.8445 100.593 63.1082 99.1936C60.291 98.4708 62.3761 94.486 60.291 90.6401Z" fill="#263238"/>
<path d="M57.3819 40.8022H59.2168V37.0584H57.3819V40.8022Z" fill="white"/>
<path d="M54.0079 40.792H55.8428V35.5283H54.0079V40.792Z" fill="white"/>
<path d="M50.6456 40.8022H52.4805V34.0281H50.6456V40.8022Z" fill="white"/>
<path d="M47.2716 40.792H49.1064V32.5073H47.2716V40.792Z" fill="white"/>
<path d="M175.193 40.0327H185.072C185.681 40.0327 186.175 39.539 186.175 38.9299V34.3613C186.175 33.7523 185.681 33.2585 185.072 33.2585H175.193C174.584 33.2585 174.091 33.7523 174.091 34.3613V38.9299C174.091 39.539 174.584 40.0327 175.193 40.0327Z" fill="white"/>
<path d="M172.682 38.6143H171.755C171.509 38.6143 171.273 38.5166 171.1 38.3428C170.926 38.169 170.828 37.9333 170.828 37.6876V35.5747C170.828 35.3289 170.926 35.0932 171.1 34.9194C171.273 34.7456 171.509 34.648 171.755 34.648H172.682V38.5865V38.6143Z" fill="white"/>
<path d="M186.028 56.0736C186.596 56.6426 186.984 57.3675 187.14 58.1566C187.297 58.9457 187.217 59.7636 186.909 60.5069C186.601 61.2501 186.079 61.8853 185.41 62.3323C184.741 62.7792 183.955 63.0177 183.15 63.0177C182.346 63.0177 181.559 62.7792 180.89 62.3323C180.221 61.8853 179.7 61.2501 179.392 60.5069C179.084 59.7636 179.003 58.9457 179.16 58.1566C179.317 57.3675 179.704 56.6426 180.273 56.0736C180.65 55.6945 181.098 55.3937 181.592 55.1884C182.086 54.9831 182.615 54.8774 183.15 54.8774C183.685 54.8774 184.215 54.9831 184.708 55.1884C185.202 55.3937 185.65 55.6945 186.028 56.0736V56.0736Z" stroke="#263238" stroke-linecap="round" stroke-linejoin="round"/>
<path d="M186.026 61.8291L190.298 66.1012" stroke="#263238" stroke-linecap="round" stroke-linejoin="round"/>
<path d="M125.994 53.1357H106.969C105.996 53.1357 105.208 53.924 105.208 54.8965V66.0817C105.208 67.0542 105.996 67.8425 106.969 67.8425H125.994C126.966 67.8425 127.755 67.0542 127.755 66.0817V54.8965C127.755 53.924 126.966 53.1357 125.994 53.1357Z" fill="#263238" stroke="#D7B00F" stroke-linecap="round" stroke-linejoin="round"/>
<path d="M105.208 54.897L115.031 61.2819C115.464 61.5583 115.967 61.7051 116.481 61.7051C116.995 61.7051 117.498 61.5583 117.932 61.2819L127.755 54.897" fill="#263238"/>
<path d="M105.208 54.897L115.031 61.2819C115.464 61.5583 115.967 61.7051 116.481 61.7051C116.995 61.7051 117.498 61.5583 117.932 61.2819L127.755 54.897" stroke="#D7B00F" stroke-linecap="round" stroke-linejoin="round"/>
<path d="M107.321 64.8961L112.613 61.9214L107.321 64.8961Z" fill="#263238"/>
<path d="M107.321 64.8961L112.613 61.9214" stroke="#D7B00F" stroke-linecap="round" stroke-linejoin="round"/>
<path d="M125.644 64.8961L120.361 61.9214L125.644 64.8961Z" fill="#263238"/>
<path d="M125.644 64.8961L120.361 61.9214" stroke="#D7B00F" stroke-linecap="round" stroke-linejoin="round"/>
<path d="M91.1694 127.93H73.2655C72.774 127.93 72.3025 127.735 71.955 127.387C71.6074 127.04 71.4121 126.568 71.4121 126.077C71.4121 125.585 71.6074 125.114 71.955 124.766C72.3025 124.418 72.774 124.223 73.2655 124.223H91.1323C91.6239 124.223 92.0953 124.418 92.4429 124.766C92.7904 125.114 92.9857 125.585 92.9857 126.077C92.9858 126.562 92.7956 127.028 92.456 127.374C92.1164 127.721 91.6545 127.92 91.1694 127.93Z" fill="#263238"/>
<path d="M129.6 132.489H72.4501C72.1896 132.489 71.9397 132.386 71.7555 132.202C71.5713 132.017 71.4678 131.767 71.4678 131.507C71.4798 131.255 71.5888 131.018 71.772 130.845C71.9552 130.673 72.1982 130.578 72.4501 130.58H129.6C129.725 130.574 129.851 130.593 129.969 130.637C130.086 130.681 130.194 130.748 130.285 130.835C130.376 130.921 130.449 131.026 130.498 131.141C130.548 131.257 130.573 131.381 130.573 131.507C130.573 131.766 130.471 132.014 130.288 132.198C130.106 132.382 129.859 132.487 129.6 132.489Z" fill="#263238"/>
<path d="M62.6082 135.897C66.5996 132.014 66.6876 125.631 62.8048 121.64C58.922 117.648 52.5387 117.56 48.5473 121.443C44.556 125.326 44.4679 131.709 48.3507 135.701C52.2335 139.692 58.6168 139.78 62.6082 135.897Z" fill="white" stroke="#263238" stroke-linecap="round" stroke-linejoin="round"/>
<path d="M56.3902 138.736C59.2259 138.319 62.5991 135.956 62.5991 135.956C61.6635 135.556 60.6924 135.246 59.6985 135.029C59.4455 135.021 59.197 134.96 58.9694 134.849C58.7418 134.738 58.5403 134.581 58.3782 134.386C58.2162 134.192 58.0973 133.965 58.0293 133.721C57.9614 133.477 57.946 133.222 57.9841 132.972C59.2708 131.234 59.9247 129.108 59.8375 126.948C59.7912 125.336 59.8375 122.185 56.3902 121.758C56.1186 121.744 55.8463 121.744 55.5747 121.758C55.3031 121.744 55.0308 121.744 54.7592 121.758C51.3397 122.185 51.3675 125.336 51.3119 126.948C51.2247 129.108 51.8786 131.234 53.1653 132.972C53.2034 133.222 53.188 133.477 53.1201 133.721C53.0521 133.965 52.9332 134.192 52.7712 134.386C52.6091 134.581 52.4076 134.738 52.18 134.849C51.9524 134.96 51.7039 135.021 51.4509 135.029C50.46 135.246 49.4919 135.556 48.5596 135.956C48.5596 135.956 51.9513 138.272 54.7314 138.736C55.0008 138.782 55.2735 138.807 55.5469 138.81C55.8203 138.808 56.0931 138.783 56.3624 138.736H56.3902Z" fill="#263238"/>
<path d="M64.3129 140.45C66.5137 140.45 68.2978 138.666 68.2978 136.465C68.2978 134.264 66.5137 132.48 64.3129 132.48C62.1122 132.48 60.3281 134.264 60.3281 136.465C60.3281 138.666 62.1122 140.45 64.3129 140.45Z" fill="#D7B00F" stroke="#263238" stroke-linecap="round" stroke-linejoin="round"/>
<path d="M64.1097 136.243L63.8316 134.473H64.7583L64.4803 136.243L66.0743 135.436L66.3708 136.363L64.6193 136.66L65.8704 137.92L65.1012 138.485L64.2765 136.901L63.4517 138.485L62.6825 137.92L63.9336 136.66L62.1729 136.363L62.4787 135.436L64.1097 136.243Z" fill="#263238"/>
<path d="M109.703 160.244H73.2655C72.774 160.244 72.3025 160.049 71.955 159.702C71.6074 159.354 71.4121 158.883 71.4121 158.391C71.4121 157.899 71.6074 157.428 71.955 157.08C72.3025 156.733 72.774 156.538 73.2655 156.538H109.666C110.158 156.538 110.629 156.733 110.977 157.08C111.324 157.428 111.52 157.899 111.52 158.391C111.52 158.876 111.33 159.342 110.99 159.689C110.65 160.035 110.189 160.235 109.703 160.244Z" fill="#263238"/>
<path d="M148.134 164.803H72.4501C72.1896 164.803 71.9397 164.7 71.7555 164.516C71.5713 164.331 71.4678 164.081 71.4678 163.821C71.4678 163.692 71.4932 163.565 71.5427 163.446C71.5922 163.328 71.6647 163.22 71.756 163.13C71.8474 163.039 71.9557 162.968 72.0749 162.919C72.194 162.871 72.3215 162.847 72.4501 162.848H148.134C148.263 162.841 148.393 162.862 148.514 162.908C148.635 162.955 148.745 163.026 148.837 163.118C148.928 163.21 149 163.32 149.046 163.441C149.093 163.562 149.113 163.691 149.107 163.821C149.107 164.08 149.005 164.328 148.822 164.512C148.64 164.696 148.393 164.801 148.134 164.803Z" fill="#263238"/>
<path d="M57.991 170.779C63.3992 169.452 66.7081 163.993 65.3817 158.585C64.0554 153.177 58.596 149.868 53.1878 151.194C47.7797 152.52 44.4707 157.98 45.7971 163.388C47.1235 168.796 52.5829 172.105 57.991 170.779Z" fill="white" stroke="#263238" stroke-linecap="round" stroke-linejoin="round"/>
<path d="M56.3902 171.003C59.2259 170.586 62.5991 168.223 62.5991 168.223C61.6635 167.824 60.6924 167.513 59.6985 167.296C59.4455 167.289 59.197 167.228 58.9694 167.117C58.7418 167.006 58.5403 166.848 58.3782 166.654C58.2162 166.459 58.0973 166.233 58.0293 165.989C57.9614 165.745 57.946 165.489 57.9841 165.239C59.2708 163.501 59.9247 161.376 59.8375 159.216C59.7912 157.603 59.8375 154.452 56.3902 154.026C56.1186 154.012 55.8463 154.012 55.5747 154.026C55.3031 154.012 55.0308 154.012 54.7592 154.026C51.3397 154.452 51.3675 157.603 51.3119 159.216C51.2247 161.376 51.8786 163.501 53.1653 165.239C53.2034 165.489 53.188 165.745 53.1201 165.989C53.0521 166.233 52.9332 166.459 52.7712 166.654C52.6091 166.848 52.4076 167.006 52.18 167.117C51.9524 167.228 51.7039 167.289 51.4509 167.296C50.46 167.513 49.4919 167.823 48.5596 168.223C48.5596 168.223 51.9235 170.586 54.7592 171.003C55.0286 171.05 55.3013 171.075 55.5747 171.077C55.8481 171.075 56.1209 171.05 56.3902 171.003Z" fill="#263238"/>
<path d="M55.5746 153.386C51.9512 153.386 49.4121 155.898 48.9395 164.951C53.2448 166.397 57.9045 166.397 62.2098 164.951C61.7372 155.898 59.198 153.386 55.5746 153.386Z" fill="#263238"/>
<path d="M100.436 192.558H73.2655C72.774 192.558 72.3025 192.363 71.955 192.015C71.6074 191.667 71.4121 191.196 71.4121 190.704C71.4121 190.213 71.6074 189.741 71.955 189.394C72.3025 189.046 72.774 188.851 73.2655 188.851H100.399C100.891 188.851 101.362 189.046 101.71 189.394C102.057 189.741 102.253 190.213 102.253 190.704C102.253 191.19 102.063 191.656 101.723 192.002C101.383 192.349 100.922 192.548 100.436 192.558Z" fill="#263238"/>
<path d="M166.668 197.117H72.4501C72.3215 197.119 72.194 197.094 72.0749 197.046C71.9557 196.998 71.8474 196.926 71.756 196.836C71.6647 196.745 71.5922 196.638 71.5427 196.519C71.4932 196.4 71.4678 196.273 71.4678 196.144C71.4678 195.884 71.5713 195.634 71.7555 195.45C71.9397 195.266 72.1896 195.162 72.4501 195.162H166.668C166.927 195.165 167.174 195.269 167.356 195.453C167.539 195.637 167.641 195.885 167.641 196.144C167.647 196.274 167.627 196.403 167.58 196.525C167.534 196.646 167.462 196.756 167.371 196.847C167.279 196.939 167.169 197.01 167.048 197.057C166.927 197.103 166.797 197.124 166.668 197.117Z" fill="#263238"/>
<path d="M62.616 200.515C66.6074 196.633 66.6954 190.249 62.8126 186.258C58.9298 182.267 52.5465 182.179 48.5552 186.061C44.5638 189.944 44.4758 196.327 48.3586 200.319C52.2414 204.31 58.6246 204.398 62.616 200.515Z" fill="white" stroke="#263238" stroke-linecap="round" stroke-linejoin="round"/>
<path d="M56.3902 203.317C59.2259 202.9 62.5991 200.537 62.5991 200.537C61.6635 200.138 60.6924 199.828 59.6985 199.611C59.4455 199.603 59.197 199.542 58.9694 199.431C58.7418 199.32 58.5403 199.162 58.3782 198.968C58.2162 198.773 58.0973 198.547 58.0293 198.303C57.9614 198.059 57.946 197.804 57.9841 197.553C59.2721 195.813 59.9261 193.684 59.8375 191.521C59.7912 189.917 59.8375 186.767 56.3902 186.34C56.1194 186.31 55.8472 186.295 55.5747 186.294C55.3022 186.295 55.03 186.31 54.7592 186.34C51.3397 186.767 51.3675 189.917 51.3119 191.521C51.2233 193.684 51.8773 195.813 53.1653 197.553C53.2034 197.804 53.188 198.059 53.1201 198.303C53.0521 198.547 52.9332 198.773 52.7712 198.968C52.6091 199.162 52.4076 199.32 52.18 199.431C51.9524 199.542 51.7039 199.603 51.4509 199.611C50.46 199.827 49.4919 200.138 48.5596 200.537C48.5596 200.537 51.9235 202.9 54.7592 203.317C55.0292 203.36 55.3016 203.384 55.5747 203.392C55.8479 203.385 56.1203 203.36 56.3902 203.317Z" fill="#263238"/>
<path d="M64.3129 205.078C66.5137 205.078 68.2978 203.294 68.2978 201.093C68.2978 198.892 66.5137 197.108 64.3129 197.108C62.1122 197.108 60.3281 198.892 60.3281 201.093C60.3281 203.294 62.1122 205.078 64.3129 205.078Z" fill="#D7B00F" stroke="#263238" stroke-linecap="round" stroke-linejoin="round"/>
<path d="M64.1097 200.824L63.8316 199.063H64.7583L64.4803 200.824L66.0743 200.027L66.3708 200.954L64.6193 201.25L65.8704 202.502L65.1012 203.076L64.2765 201.491L63.4517 203.076L62.6825 202.502L63.9336 201.25L62.1729 200.954L62.4787 200.027L64.1097 200.824Z" fill="#263238"/>
<path d="M81.9024 224.919H73.2655C72.774 224.919 72.3025 224.723 71.955 224.376C71.6074 224.028 71.4121 223.557 71.4121 223.065C71.4121 222.574 71.6074 222.102 71.955 221.755C72.3025 221.407 72.774 221.212 73.2655 221.212H81.8653C82.3569 221.212 82.8283 221.407 83.1759 221.755C83.5234 222.102 83.7187 222.574 83.7187 223.065C83.7188 223.55 83.5286 224.016 83.189 224.363C82.8494 224.709 82.3875 224.909 81.9024 224.919Z" fill="#263238"/>
<path d="M157.401 229.423H72.4501C72.3215 229.424 72.194 229.4 72.0749 229.351C71.9557 229.303 71.8474 229.231 71.756 229.141C71.6647 229.05 71.5922 228.943 71.5427 228.824C71.4932 228.705 71.4678 228.578 71.4678 228.45C71.4678 228.189 71.5713 227.939 71.7555 227.755C71.9397 227.571 72.1896 227.467 72.4501 227.467H157.401C157.66 227.47 157.907 227.574 158.089 227.758C158.272 227.942 158.374 228.191 158.374 228.45C158.38 228.579 158.36 228.709 158.313 228.83C158.267 228.951 158.195 229.061 158.104 229.152C158.012 229.244 157.902 229.316 157.781 229.362C157.66 229.409 157.53 229.429 157.401 229.423Z" fill="#263238"/>
<path d="M62.6209 232.834C66.6123 228.951 66.7003 222.568 62.8175 218.576C58.9347 214.585 52.5514 214.497 48.56 218.38C44.5687 222.263 44.4806 228.646 48.3634 232.637C52.2463 236.629 58.6295 236.717 62.6209 232.834Z" fill="white" stroke="#263238" stroke-linecap="round" stroke-linejoin="round"/>
<path d="M56.3902 235.631C59.2259 235.205 62.5991 232.851 62.5991 232.851C61.6635 232.452 60.6924 232.142 59.6985 231.925C59.446 231.916 59.1982 231.853 58.9713 231.742C58.7445 231.631 58.5436 231.473 58.3818 231.279C58.2201 231.085 58.101 230.859 58.0325 230.615C57.964 230.372 57.9475 230.117 57.9841 229.867C59.2721 228.127 59.9261 225.998 59.8375 223.834C59.7912 222.231 59.8375 219.081 56.3902 218.654C56.1194 218.624 55.8472 218.609 55.5747 218.608C55.3022 218.609 55.03 218.624 54.7592 218.654C51.3397 219.081 51.3675 222.231 51.3119 223.834C51.2233 225.998 51.8773 228.127 53.1653 229.867C53.2019 230.117 53.1854 230.372 53.1169 230.615C53.0484 230.859 52.9293 231.085 52.7676 231.279C52.6058 231.473 52.4049 231.631 52.1781 231.742C51.9512 231.853 51.7034 231.916 51.4509 231.925C50.46 232.141 49.4919 232.452 48.5596 232.851C48.5596 232.851 51.9235 235.205 54.7592 235.631C55.0293 235.671 55.3018 235.692 55.5747 235.696C55.8477 235.693 56.1201 235.671 56.3902 235.631Z" fill="#263238"/>
<path d="M100.436 257.186H73.2655C72.774 257.186 72.3025 256.991 71.955 256.644C71.6074 256.296 71.4121 255.824 71.4121 255.333C71.4121 254.841 71.6074 254.37 71.955 254.022C72.3025 253.675 72.774 253.479 73.2655 253.479H100.399C100.891 253.479 101.362 253.675 101.71 254.022C102.057 254.37 102.253 254.841 102.253 255.333C102.253 255.818 102.063 256.284 101.723 256.631C101.383 256.977 100.922 257.177 100.436 257.186Z" fill="#263238"/>
<path d="M65.6572 257.928C65.6581 258.481 65.6116 259.033 65.5182 259.578H45.6312C45.5378 259.033 45.4913 258.481 45.4922 257.928C45.4922 255.254 46.5545 252.69 48.4453 250.799C50.3361 248.908 52.9007 247.846 55.5747 247.846C58.2488 247.846 60.8133 248.908 62.7041 250.799C64.595 252.69 65.6572 255.254 65.6572 257.928Z" fill="white" stroke="#263238" stroke-linecap="round" stroke-linejoin="round"/>
<path d="M59.8369 256.139C59.8806 257.307 59.7078 258.472 59.3273 259.577H51.821C51.4405 258.472 51.2677 257.307 51.3113 256.139C51.3669 254.536 51.3113 251.385 54.7586 250.959C55.3005 250.897 55.8477 250.897 56.3896 250.959C59.8184 251.385 59.7906 254.573 59.8369 256.139Z" fill="#263238"/>
<path d="M170.152 254.647C177.506 254.647 183.468 248.685 183.468 241.33C183.468 233.976 177.506 228.014 170.152 228.014C162.797 228.014 156.835 233.976 156.835 241.33C156.835 248.685 162.797 254.647 170.152 254.647Z" fill="#D7B00F" stroke="#263238" stroke-linecap="round" stroke-linejoin="round"/>
<path d="M175.971 237.308L174.182 235.519L166.135 243.566L167.924 245.355L175.971 237.308Z" fill="#263238"/>
<path d="M165.324 244.37L164.342 247.141L167.113 246.159L165.324 244.37Z" fill="#263238"/>
<rect x="33.5" y="44.5" width="163" height="217" fill="white"/>
<rect x="41" y="75" width="147" height="8" rx="4" fill="#777777"/>
<rect x="41" y="88" width="110" height="8" rx="4" fill="#777777"/>
<rect x="50.5" y="130.5" width="129" height="23" rx="11.5" fill="white" stroke="#263238"/>
<rect x="50.5" y="170.5" width="129" height="23" rx="11.5" fill="#4DFEA0" stroke="#263238"/>
<rect x="50.5" y="210.5" width="129" height="23" rx="11.5" fill="white" stroke="#263238"/>
<rect x="33.5" y="44.5" width="163" height="217" stroke="#263238"/>
<path d="M222.456 249.564C222.454 249.582 222.454 249.601 222.456 249.62C222.004 250.561 215.49 264.484 207.554 277.861C205.474 281.372 203.299 284.837 201.106 288.028C196.333 294.975 191.495 300.595 187.475 302.346C174.296 308.079 181.827 263.157 181.827 263.157C186.634 257.436 190.768 251.182 194.149 244.518C195.721 241.411 197.548 237.806 199.459 234.163C200.927 231.386 202.433 228.609 203.911 226.039C207.253 220.202 210.369 215.495 212.261 214.573C214.332 213.556 217.194 224.052 219.359 233.814C221.119 241.948 222.456 249.564 222.456 249.564Z" fill="white" stroke="#263238" stroke-linecap="round" stroke-linejoin="round"/>
<path d="M222.456 249.564C222.454 249.583 222.454 249.602 222.456 249.62C222.004 250.562 215.49 264.485 207.554 277.861C209.945 256.483 207.705 242.184 207.705 242.184C202.612 234.483 199.421 234.191 199.421 234.191C200.889 231.414 202.396 228.637 203.874 226.067L210.614 219.77L219.321 233.843C221.119 241.948 222.456 249.564 222.456 249.564Z" fill="#263238"/>
<path d="M283.193 105.798C295.092 114.411 305.503 144.836 301.531 164.605C297.558 184.374 317.995 190.022 317.92 221.228C317.92 229.927 290.978 265.285 259.696 246.419C228.415 227.554 219.726 218.273 222.701 199.351C225.675 180.43 225.807 167.985 220.159 152.104C214.511 136.223 261.607 90.1993 283.193 105.798Z" fill="#263238"/>
<path d="M328.962 239.237L322.316 243.746C320.585 254.654 317.567 265.319 313.326 275.517C304.957 295.164 297.549 306.874 294.96 310.743C294.32 311.685 293.972 312.155 293.972 312.155L300.919 338.203C300.919 338.203 254.557 386.41 203.421 379.454L206.839 352.154L211.442 315.441L212.939 303.514C212.939 303.514 212.308 294.956 211.301 284.423C210.613 277.165 209.747 268.965 208.768 261.98C208.728 261.668 208.712 261.354 208.721 261.039C208.797 256.633 212.251 247.37 212.251 247.37C209.333 242.748 206.603 238.493 204.353 235.132C201.379 230.623 199.411 227.724 199.411 227.724C199.411 227.724 209.766 214.997 210.35 213.547C213.626 204.971 225.073 206.571 225.073 206.571C225.929 205.743 226.998 205.17 228.161 204.915C233.602 203.55 249.068 214.394 257.512 214.479C265.957 214.564 307.405 203.399 307.405 203.399L311.622 204.915C311.622 204.915 317.336 204.237 321.799 212.502C323.917 216.503 328.962 239.237 328.962 239.237Z" fill="#D7B00F"/>
<path opacity="0.3" d="M254.538 346.591C254.538 346.591 225.732 356.315 206.792 352.164L211.395 315.45C215.5 319.526 239.297 342.486 254.538 346.591Z" fill="black" fill-opacity="0.7"/>
<path opacity="0.3" d="M212.204 247.408C209.285 242.786 206.556 238.531 204.306 235.17C206.264 230.464 209.173 226.105 213.202 226.359C213.202 226.359 210.387 238.861 212.204 247.408Z" fill="black" fill-opacity="0.7"/>
<path opacity="0.3" d="M305.626 239.237C300.458 240.95 288.747 246.137 288.747 246.137L286.582 243.624L294.913 231.687C294.913 231.687 289.048 234.059 286.582 237.043C284.116 240.028 283.466 246.683 283.372 246.655C283.278 246.627 281.216 239.651 281.216 239.651C280.516 242.555 280.056 245.511 279.842 248.49C279.569 251.644 283.033 256.775 286.036 260.587L280.802 288.442L260.845 276.308L251.431 270.603C250.608 270.17 249.813 269.685 249.05 269.154C247.958 268.269 247.242 267.12 245.971 266.329C244.519 265.515 242.951 264.928 241.321 264.588C235.362 263.201 229.17 263.152 223.19 264.447C220.667 264.993 218.079 265.774 215.574 265.181C213.07 264.588 210.924 262.583 208.721 261.077C208.712 261.391 208.728 261.706 208.768 262.018C209.71 269.003 210.651 277.202 211.301 284.46H212.374C213.069 284.422 213.765 284.479 214.445 284.63C215.885 285.025 218.747 292.048 219.735 293.158C226.956 301.217 239.033 314.81 247.807 321.164C246.056 316.457 236.896 299.983 237.066 294.806C239.033 295.465 240.568 296.98 242.149 298.327C246.913 302.412 252.599 305.255 258.209 308.06L270.569 314.245C274.335 316.128 279.296 319.074 283.626 317.916C287.175 316.975 291.647 313.407 294.48 311.157L294.951 310.781C297.539 306.912 304.948 295.201 313.317 275.555C317.558 265.357 320.576 254.692 322.307 243.784L328.953 239.274C328.953 239.274 310.794 237.524 305.626 239.237Z" fill="black" fill-opacity="0.7"/>
<path d="M203.421 379.454L212.939 303.561C212.939 303.561 211.15 279.16 208.768 262.027C208.232 258.187 212.251 247.408 212.251 247.408C205.408 236.582 199.411 227.761 199.411 227.761C199.411 227.761 209.766 215.034 210.35 213.584C213.626 205.009 225.073 206.609 225.073 206.609C225.929 205.781 226.998 205.207 228.161 204.952C233.602 203.587 249.068 214.432 257.512 214.516C265.956 214.601 307.405 203.437 307.405 203.437L311.622 204.952C311.622 204.952 317.336 204.274 321.798 212.54C323.945 216.503 329 239.237 329 239.237L322.354 243.746C320.623 254.654 317.605 265.319 313.364 275.517C302.933 299.993 294 312.174 294 312.174L300.947 338.222" stroke="#263238" stroke-linecap="round" stroke-linejoin="round"/>
<path d="M296.004 230.247C296.004 230.247 284.209 245.525 284.5 248.349C284.792 251.173 290.252 254.082 290.252 254.082" stroke="#263238" stroke-linecap="round" stroke-linejoin="round"/>
<path d="M280.802 236.375C281.371 240.343 281.701 244.342 281.79 248.349C281.79 253.583 296.005 262.272 296.005 262.272" stroke="#263238" stroke-linecap="round" stroke-linejoin="round"/>
<path d="M212.204 247.408C212.204 247.408 211.216 227.263 214.351 223.789" stroke="#263238" stroke-linecap="round" stroke-linejoin="round"/>
<path d="M208.721 231.235C208.721 231.235 210.34 241.665 212.053 243.652" stroke="#263238" stroke-linecap="round" stroke-linejoin="round"/>
<path d="M261.682 239.237C261.682 239.237 241.32 252.341 222.455 254.082" stroke="#263238" stroke-linecap="round" stroke-linejoin="round"/>
<path d="M222.455 296.538C222.455 296.538 245.293 324.092 260.195 327.82" stroke="#263238" stroke-linecap="round" stroke-linejoin="round"/>
<path d="M293.961 312.174C293.961 312.174 288.774 308.408 290.252 306.206" stroke="#263238" stroke-linecap="round" stroke-linejoin="round"/>
<path d="M280.803 334.579C280.803 334.579 248.401 352.643 231.852 351.156" stroke="#263238" stroke-linecap="round" stroke-linejoin="round"/>
<path d="M193.857 276.665C189.63 261.133 182.711 256.068 178.145 239.434C176.79 234.511 172.77 219.496 172.77 219.496C172.77 219.496 177.901 203.493 167.649 194.38C167.649 194.38 164.825 194.38 160.015 205.46C158.005 210.3 157.484 215.629 158.518 220.767C158.518 220.767 161.709 240.282 162.406 245.525C164.081 258.168 167.715 279.339 172.761 289.967C178.174 301.329 183.878 303.871 188.152 301.527" fill="white"/>
<path d="M193.857 276.665C189.63 261.133 182.711 256.068 178.145 239.434C176.79 234.511 172.77 219.496 172.77 219.496C172.77 219.496 177.901 203.493 167.649 194.38C167.649 194.38 164.825 194.38 160.015 205.46C158.005 210.3 157.484 215.629 158.518 220.767C158.518 220.767 161.709 240.282 162.406 245.525C164.081 258.168 167.715 279.339 172.761 289.967C178.174 301.329 183.878 303.871 188.152 301.527" stroke="#263238" stroke-linecap="round" stroke-linejoin="round"/>
<path d="M174.559 216.088L185.535 219.713C186.693 220.014 188.971 218.084 188.868 216.888L185.582 178.688C185.518 177.935 185.222 177.221 184.735 176.645C184.247 176.068 183.593 175.657 182.862 175.468L170.746 172.832C169.588 172.541 166.679 173.924 166.783 175.111L171.829 212.869C171.893 213.622 172.191 214.337 172.68 214.914C173.169 215.491 173.826 215.902 174.559 216.088Z" fill="#D7B00F"/>
<path opacity="0.3" d="M174.559 216.088L185.535 219.713C186.693 220.014 188.971 218.084 188.868 216.888L185.582 178.688C185.518 177.935 185.222 177.221 184.735 176.645C184.247 176.068 183.593 175.657 182.862 175.468L170.746 172.832C169.588 172.541 166.679 173.924 166.783 175.111L171.829 212.869C171.893 213.622 172.191 214.337 172.68 214.914C173.169 215.491 173.826 215.902 174.559 216.088Z" fill="black" fill-opacity="0.7"/>
<path d="M174.559 216.088L185.535 219.713C186.693 220.014 188.971 218.084 188.868 216.888L185.582 178.688C185.518 177.935 185.222 177.221 184.735 176.645C184.247 176.068 183.593 175.657 182.862 175.468L170.746 172.832C169.588 172.541 166.679 173.924 166.783 175.111L171.829 212.869C171.893 213.622 172.191 214.337 172.68 214.914C173.169 215.491 173.826 215.902 174.559 216.088V216.088Z" stroke="#263238" stroke-linecap="round" stroke-linejoin="round"/>
<path d="M172.751 217.03L184.867 219.657C185.134 219.727 185.414 219.732 185.684 219.672C185.954 219.611 186.205 219.487 186.417 219.308C186.628 219.13 186.793 218.904 186.899 218.648C187.004 218.393 187.047 218.115 187.022 217.84L183.784 179.63C183.72 178.876 183.422 178.161 182.933 177.584C182.444 177.007 181.787 176.597 181.054 176.41L168.948 173.774C168.68 173.706 168.4 173.702 168.13 173.764C167.861 173.826 167.61 173.952 167.399 174.131C167.188 174.31 167.022 174.536 166.917 174.792C166.811 175.048 166.769 175.325 166.792 175.601L170.031 213.811C170.095 214.563 170.391 215.277 170.878 215.854C171.366 216.431 172.02 216.842 172.751 217.03Z" fill="#D7B00F" stroke="#263238" stroke-linecap="round" stroke-linejoin="round"/>
<path opacity="0.3" d="M179.473 186.699L181.422 187.122C181.465 187.133 181.509 187.133 181.553 187.123C181.596 187.113 181.636 187.093 181.669 187.064C181.703 187.036 181.73 187 181.748 186.959C181.765 186.919 181.773 186.875 181.77 186.831L181.252 180.665C181.241 180.543 181.192 180.429 181.113 180.336C181.034 180.243 180.928 180.177 180.81 180.147L178.852 179.723C178.809 179.713 178.764 179.713 178.721 179.723C178.678 179.733 178.638 179.753 178.604 179.781C178.57 179.81 178.543 179.846 178.526 179.886C178.508 179.927 178.501 179.971 178.503 180.015L179.031 186.181C179.042 186.302 179.091 186.417 179.17 186.51C179.249 186.602 179.355 186.668 179.473 186.699Z" fill="black" fill-opacity="0.7"/>
<path d="M162.434 205.846C161.963 200.49 166.84 192.45 170.087 192.45C173.335 192.45 183.201 200.056 183.201 200.056C187.023 202.824 185.13 205.46 185.13 205.46C187.38 206.947 187.955 208.962 186.966 209.894C185.978 210.826 182.673 209.894 182.673 209.894C182.673 209.894 185.949 212.285 185.13 213.462C183.201 216.239 176.856 212.577 176.856 212.577C176.856 212.577 180.537 215.005 180.329 215.467C178.936 218.498 172.921 214.968 172.921 214.968L168.694 217.133C168.698 217.631 168.599 218.125 168.402 218.583C168.206 219.042 167.917 219.454 167.554 219.796C167.191 220.137 166.761 220.399 166.291 220.566C165.821 220.734 165.322 220.802 164.825 220.767" fill="white"/>
<path d="M162.434 205.846C161.963 200.49 166.84 192.45 170.087 192.45C173.335 192.45 183.201 200.056 183.201 200.056C187.023 202.824 185.13 205.46 185.13 205.46C187.38 206.947 187.955 208.962 186.966 209.894C185.978 210.826 182.673 209.894 182.673 209.894C182.673 209.894 185.949 212.285 185.13 213.462C183.201 216.239 176.856 212.577 176.856 212.577C176.856 212.577 180.537 215.005 180.329 215.467C178.936 218.498 172.921 214.968 172.921 214.968L168.694 217.133C168.698 217.631 168.599 218.125 168.402 218.583C168.206 219.042 167.917 219.454 167.554 219.796C167.191 220.137 166.761 220.399 166.291 220.566C165.821 220.734 165.322 220.802 164.825 220.767" stroke="#263238" stroke-linecap="round" stroke-linejoin="round"/>
<path d="M185.131 205.461C185.131 205.461 175.886 199.492 174.719 199.332C173.552 199.172 169.269 198.24 169.269 198.24" fill="white"/>
<path d="M185.131 205.461C185.131 205.461 175.886 199.492 174.719 199.332C173.552 199.172 169.269 198.24 169.269 198.24" stroke="#263238" stroke-linecap="round" stroke-linejoin="round"/>
<path d="M182.711 209.894C182.711 209.894 175.18 206.016 173.825 206.016C171.747 205.788 169.684 205.433 167.649 204.952" fill="white"/>
<path d="M182.711 209.894C182.711 209.894 175.18 206.016 173.825 206.016C171.747 205.788 169.684 205.433 167.649 204.952" stroke="#263238" stroke-linecap="round" stroke-linejoin="round"/>
<path d="M176.857 212.577C175.98 211.953 175.051 211.405 174.08 210.939C172.287 210.811 170.488 210.811 168.695 210.939" fill="white"/>
<path d="M176.857 212.577C175.98 211.953 175.051 211.405 174.08 210.939C172.287 210.811 170.488 210.811 168.695 210.939" stroke="#263238" stroke-linecap="round" stroke-linejoin="round"/>
<path d="M270.993 272.703C270.993 272.703 276.83 269.417 282.045 257.161C287.26 244.904 288.747 246.137 288.747 246.137C288.747 246.137 300.166 240.536 305.626 239.237C311.086 237.938 321.017 239.237 321.017 239.237C321.017 239.237 312.545 263.816 303.894 279.801C295.243 295.785 288.277 305.218 283.655 306.159C279.032 307.1 270.993 272.703 270.993 272.703Z" fill="white" stroke="#263238" stroke-linecap="round" stroke-linejoin="round"/>
<path d="M304.882 205.046C304.882 205.046 263.33 227.178 251.318 227.056C239.306 226.933 231.822 206.346 231.822 206.346C231.822 206.346 254.039 205.847 251.459 195.228C251.459 195.049 251.374 194.851 251.318 194.663C250.254 190.954 246.178 184.459 244.663 182.124C244.305 181.569 244.088 181.249 244.088 181.249L276.97 156.698C275.088 181.522 278.721 192.404 280.952 196.489C284.784 203.484 304.882 205.046 304.882 205.046Z" fill="white" stroke="#263238" stroke-linecap="round" stroke-linejoin="round"/>
<path d="M267.641 170.611C267.641 170.611 260.788 189.984 251.43 195.228C251.43 195.049 251.346 194.851 251.289 194.663C250.226 190.954 246.149 184.458 244.634 182.124L267.641 170.611Z" fill="#263238"/>
<path d="M253.399 221.153C253.399 221.153 255.725 216.663 259.198 216.136C262.672 215.608 272.236 215.514 289.925 212.577" stroke="#263238" stroke-linecap="round" stroke-linejoin="round"/>
<path d="M248.062 221.153C248.062 221.153 246.575 217.66 246.179 216.135C245.784 214.61 236.54 212.69 233.471 210.167" stroke="#263238" stroke-linecap="round" stroke-linejoin="round"/>
<path d="M222.917 115.833C216.827 122.469 215.01 144.13 218.05 153.487C218.05 153.487 233.31 155.671 236.878 152.922C240.446 150.174 222.917 115.833 222.917 115.833Z" fill="#263238"/>
<path d="M280.303 159.578C281.771 153.092 289.557 121.65 271.228 107.737C252.9 93.8236 230.542 112.378 227.407 116.755C214.765 134.415 220.366 148.451 222.701 156.914C225.035 165.377 223.887 175.629 235.71 189.721C240.681 195.642 249.624 192.488 258.435 186.36C263.716 182.689 271.153 176.231 271.341 170.009" fill="white"/>
<path d="M280.303 159.578C281.771 153.092 289.557 121.65 271.228 107.737C252.9 93.8236 230.542 112.378 227.407 116.755C214.765 134.415 220.366 148.451 222.701 156.914C225.035 165.377 223.887 175.629 235.71 189.721C240.681 195.642 249.624 192.488 258.435 186.36C263.716 182.689 271.153 176.231 271.341 170.009" stroke="#263238" stroke-linecap="round" stroke-linejoin="round"/>
<path d="M238.403 145.796C238.403 145.796 248.335 144.027 253.955 147.547" stroke="#263238" stroke-linecap="round" stroke-linejoin="round"/>
<path d="M248.907 155.398C249.152 156.923 248.616 158.279 247.702 158.43C246.789 158.58 245.82 157.488 245.594 155.944C245.368 154.4 245.886 153.064 246.799 152.913C247.712 152.762 248.653 153.873 248.907 155.398Z" fill="#263238"/>
<path d="M229.065 155.398C229.309 156.923 228.773 158.279 227.86 158.43C226.947 158.58 225.977 157.488 225.751 155.944C225.525 154.4 226.043 153.064 226.956 152.913C227.869 152.762 228.839 153.873 229.065 155.398Z" fill="#263238"/>
<path d="M227.408 145.891C227.408 145.891 221.929 143.933 220.159 146.446" stroke="#263238" stroke-linecap="round" stroke-linejoin="round"/>
<path d="M230.861 154.645C231.426 156.791 227.096 166.469 227.407 167.306C227.717 168.144 229.845 169.632 233.657 170.008" stroke="#263238" stroke-linecap="round" stroke-linejoin="round"/>
<path d="M235.541 176.664C235.541 176.664 243.486 176.664 248.061 173.435" stroke="#263238" stroke-linecap="round" stroke-linejoin="round"/>
<path d="M225.186 111.163C225.186 111.163 216.808 118.949 222.211 134.255C223.404 137.377 225.166 140.249 227.408 142.728C233.009 139.574 235.805 144.497 239.156 142.888C242.507 141.278 247.845 144.695 251.318 144.017C253.027 143.637 254.799 143.653 256.5 144.066C258.201 144.479 259.784 145.277 261.127 146.399C263.735 148.734 263.735 153.845 267.642 156.312C267.642 156.312 269.92 148.319 274.721 149.477C279.522 150.635 275.276 164.539 275.276 164.539C281.292 157.205 285.044 148.279 286.074 138.849C287.956 122.846 281.63 108.867 271.012 105.901C271.012 105.901 267.472 99.0104 255.366 100.121C243.26 101.232 232.284 100.554 225.186 111.163Z" fill="#263238"/>
<path d="M270.993 151.576C270.993 151.576 275.465 140.618 281.979 145.165C288.493 149.712 280.68 163.673 277.507 167.212C274.335 170.752 273.412 166.845 273.045 165.725" fill="white"/>
<path d="M270.993 151.576C270.993 151.576 275.465 140.618 281.979 145.165C288.493 149.712 280.68 163.673 277.507 167.212C274.335 170.752 273.412 166.845 273.045 165.725" stroke="#263238" stroke-linecap="round" stroke-linejoin="round"/>
<g opacity="0.2">
<path opacity="0.2" d="M228.124 119.127C228.312 116.385 229.133 113.723 230.525 111.352" stroke="white" stroke-linecap="round" stroke-linejoin="round"/>
<path opacity="0.2" d="M235.541 137.983C231.512 133.483 228.443 127.43 228.113 121.349" stroke="white" stroke-linecap="round" stroke-linejoin="round"/>
<path opacity="0.2" d="M244.088 130.414C246.361 134.134 249.572 137.192 253.398 139.282" stroke="white" stroke-linecap="round" stroke-linejoin="round"/>
<path opacity="0.2" d="M241.8 111.352C238.713 116.313 240.492 123.429 242.902 128.296" stroke="white" stroke-linecap="round" stroke-linejoin="round"/>
<path opacity="0.2" d="M273.177 139.564C275.51 140.774 277.961 141.743 280.491 142.454" stroke="white" stroke-linecap="round" stroke-linejoin="round"/>
<path opacity="0.2" d="M251.317 117.875C256.023 126.369 262.88 133.475 271.199 138.482" stroke="white" stroke-linecap="round" stroke-linejoin="round"/>
</g>
<path d="M204.486 199.53C204.486 199.53 201.662 199.53 201.408 201.592C201.153 203.653 205.361 206.346 205.361 206.346" fill="white"/>
<path d="M204.486 199.53C204.486 199.53 201.662 199.53 201.408 201.592C201.153 203.653 205.361 206.346 205.361 206.346" stroke="#263238" stroke-linecap="round" stroke-linejoin="round"/>
<path d="M283.815 274.416C277.451 264.711 268.47 258.639 260.44 247.869C253.794 238.938 247.662 229.635 242.074 220.005L233.555 204.002C233.555 204.002 223.124 191.425 218.907 189.881C214.69 188.337 191.607 187.603 191.607 187.603C191.607 187.603 190.666 190.107 194.234 191.369C197.802 192.63 208.731 193.656 208.731 193.656C208.731 193.656 205.511 195.04 204.768 196.179C204.024 197.318 204.768 206.675 206.255 208.577C207.743 210.478 213.457 212.21 213.457 212.21C213.457 212.21 214.21 218.8 219.792 222.067C225.374 225.333 228.104 225.371 228.104 225.371C228.104 225.371 233.357 234.295 235.551 240.668C240.257 254.252 252.128 285.138 260.704 296.275C270.852 309.454 284.003 309.962 288.757 301.575" fill="white"/>
<path d="M283.815 274.416C277.451 264.711 268.47 258.639 260.44 247.869C253.794 238.938 247.662 229.635 242.074 220.005L233.555 204.002C233.555 204.002 223.124 191.425 218.907 189.881C214.69 188.337 191.607 187.603 191.607 187.603C191.607 187.603 190.666 190.107 194.234 191.369C197.802 192.63 208.731 193.656 208.731 193.656C208.731 193.656 205.511 195.04 204.768 196.179C204.024 197.318 204.768 206.675 206.255 208.577C207.743 210.478 213.457 212.21 213.457 212.21C213.457 212.21 214.21 218.8 219.792 222.067C225.374 225.333 228.104 225.371 228.104 225.371C228.104 225.371 233.357 234.295 235.551 240.668C240.257 254.252 252.128 285.138 260.704 296.275C270.852 309.454 284.003 309.962 288.757 301.575" stroke="#263238" stroke-linecap="round" stroke-linejoin="round"/>
<path d="M218.484 198.626C218.484 198.626 210.389 199.567 209.362 200.302C208.336 201.036 208.826 206.825 209.362 208.849C209.454 209.376 209.66 209.877 209.965 210.316C210.271 210.756 210.669 211.122 211.132 211.391" stroke="#263238" stroke-linecap="round" stroke-linejoin="round"/>
<path d="M215.141 193.844C215.141 193.844 207.177 195.83 206.669 196.856C205.928 199.658 205.803 202.587 206.302 205.441C206.951 208.586 207.139 209.574 208.354 210.148" stroke="#263238" stroke-linecap="round" stroke-linejoin="round"/>
<path d="M208.721 193.665C209.854 193.191 211.017 192.795 212.204 192.479" stroke="#263238" stroke-linecap="round" stroke-linejoin="round"/>
<path d="M213.579 205.046C214.26 205.824 215.097 206.448 216.037 206.878C216.976 207.308 217.996 207.534 219.03 207.541C219.03 207.541 217.288 214.243 220.395 218.592" stroke="#263238" stroke-linecap="round" stroke-linejoin="round"/>
<path d="M215.143 206.346C215.143 206.346 213.344 207.805 213.58 208.586" stroke="#263238" stroke-linecap="round" stroke-linejoin="round"/>
<path d="M288.747 246.137C288.747 246.137 304.75 239.133 307.066 238.662C309.382 238.192 326.731 239.048 326.731 239.048C324.584 241.029 322.109 242.622 319.417 243.755C319.417 243.755 319.031 240.564 314.71 240.197C310.389 239.83 288.747 246.137 288.747 246.137Z" fill="#263238"/>
</g>
<defs>
<clipPath id="clip0_1065:1486">
<rect width="336" height="336" rx="10" fill="white"/>
</clipPath>
</defs>
</svg>
