<svg width="336" height="336" viewBox="0 0 336 336" fill="none" xmlns="http://www.w3.org/2000/svg">
<g clip-path="url(#clip0_1065:1752)">
<rect width="336" height="336" rx="10" fill="#F5A3BF"/>
<path d="M156.959 40.0181L143.965 48.946" stroke="#263238" stroke-linecap="round" stroke-linejoin="round"/>
<path d="M158.769 38.7695L157.9 39.3681" stroke="#263238" stroke-linecap="round" stroke-linejoin="round"/>
<path d="M139.278 30.236L136.351 29.8345" stroke="#263238" stroke-linecap="round" stroke-linejoin="round"/>
<path d="M158.185 32.835L141.14 30.4917" stroke="#263238" stroke-linecap="round" stroke-linejoin="round"/>
<path d="M161.287 21.3521L155.651 15.6143" stroke="#263238" stroke-linecap="round" stroke-linejoin="round"/>
<path d="M163.616 23.7246L162.31 22.3887" stroke="#263238" stroke-linecap="round" stroke-linejoin="round"/>
<path d="M178.705 23.8123L185.239 17.1401" stroke="#263238" stroke-linecap="round" stroke-linejoin="round"/>
<path d="M177.457 25.0897L178.085 24.4546" stroke="#263238" stroke-linecap="round" stroke-linejoin="round"/>
<path d="M193.123 33.1855L206.387 31.7109" stroke="#263238" stroke-linecap="round" stroke-linejoin="round"/>
<path d="M181.005 34.5357L191.524 33.3604" stroke="#263238" stroke-linecap="round" stroke-linejoin="round"/>
<path d="M190.027 46.1792L196.05 52.3988" stroke="#263238" stroke-linecap="round" stroke-linejoin="round"/>
<path d="M181.479 37.354L188.859 44.9752" stroke="#263238" stroke-linecap="round" stroke-linejoin="round"/>
<path d="M172.909 36.9961H169.544V46.6905H172.909V36.9961Z" fill="#E7316F" stroke="#263238" stroke-linecap="round" stroke-linejoin="round"/>
<path d="M175.376 45.8948V44.5078H167.069V45.8948H163.112V51.4355H179.333V45.8948H175.376Z" fill="#263238" stroke="#263238" stroke-linecap="round" stroke-linejoin="round"/>
<path d="M171.222 18.9941L175.157 26.9584L183.954 28.2432L177.588 34.4409L179.092 43.2009L171.222 39.0691L163.353 43.2009L164.857 34.4409L158.491 28.2432L167.288 26.9584L171.222 18.9941Z" fill="#E7316F" stroke="#263238" stroke-linecap="round" stroke-linejoin="round"/>
<path d="M160.207 29.0684L171.223 31.9373L180.917 29.5137" fill="#E7316F"/>
<path d="M160.207 29.0684L171.223 31.9373L180.917 29.5137" stroke="#263238" stroke-linecap="round" stroke-linejoin="round"/>
<path d="M171.441 22.4619V29.5137" stroke="#263238" stroke-linecap="round" stroke-linejoin="round"/>
<path d="M164.616 41.8502L171.004 33.4771V37.0029" fill="#E7316F"/>
<path d="M164.616 41.8502L171.004 33.4771V37.0029" stroke="#263238" stroke-linecap="round" stroke-linejoin="round"/>
<path d="M179.092 43.208L172.544 33.4771" stroke="#263238" stroke-linecap="round" stroke-linejoin="round"/>
<path d="M147.71 141.262C147.71 141.262 157.974 145.532 168.216 146.021C178.458 146.51 196.846 141.262 196.846 141.262L184.641 125.53H156.346L147.71 141.262Z" fill="#263238" stroke="#263238" stroke-linecap="round" stroke-linejoin="round"/>
<path d="M196.32 220.336C195.948 219.211 192.757 210.78 192.757 210.78C192.757 210.78 190.889 196.72 190.889 190.157C190.889 183.595 188.633 179.667 188.633 179.667L186.02 132.714L184.319 126.771H180.574L170.164 126.866L159.74 126.771H158.433L154.148 134.918L151.71 179.667C151.71 179.667 149.461 183.602 149.461 190.157C149.461 196.713 147.585 210.78 147.585 210.78C147.585 210.78 144.402 219.211 144.023 220.336C143.643 221.46 140.84 224.088 140.84 225.022C140.847 225.31 140.916 225.594 141.042 225.853C141.168 226.112 141.348 226.342 141.57 226.526H151.71C151.71 226.526 152.272 226.336 152.651 224.46C152.934 222.853 153.059 221.222 153.024 219.591C153.024 218.467 154.148 209.094 154.148 209.094L168.58 148.993H171.77L186.202 209.094C186.202 209.094 187.326 218.467 187.326 219.591C187.291 221.222 187.416 222.853 187.699 224.46C188.071 226.336 188.633 226.526 188.633 226.526H198.758C198.98 226.342 199.16 226.112 199.286 225.853C199.412 225.594 199.481 225.31 199.488 225.022C199.51 224.088 196.699 221.46 196.32 220.336Z" fill="white" stroke="#263238" stroke-linecap="round" stroke-linejoin="round"/>
<path d="M192.758 210.78C192.758 210.78 190.889 196.72 190.889 190.157C190.889 183.595 188.633 179.667 188.633 179.667L186.02 132.714L184.319 126.771H180.574L170.164 126.866L159.74 126.771H158.433L154.148 134.918L151.71 179.667C151.71 179.667 149.461 183.602 149.461 190.157C149.461 196.713 147.585 210.78 147.585 210.78L147.52 210.97H153.9C154.024 209.853 154.119 209.094 154.119 209.094L168.551 148.993H171.741L186.173 209.094C186.173 209.094 186.261 209.824 186.392 210.97H192.801L192.758 210.78Z" fill="#263238" stroke="#263238" stroke-linecap="round" stroke-linejoin="round"/>
<path d="M153.688 212.999L150.038 221.65H143.198C142.241 222.869 140.854 224.365 140.854 225.022C140.862 225.31 140.931 225.594 141.057 225.853C141.183 226.112 141.363 226.342 141.584 226.526H151.71C151.71 226.526 152.272 226.336 152.651 224.46C152.934 222.853 153.059 221.222 153.024 219.591C153.024 218.956 153.381 215.715 153.688 212.999Z" fill="#E7316F" stroke="#263238" stroke-linecap="round" stroke-linejoin="round"/>
<path d="M186.655 212.999L190.305 221.65H197.138C198.094 222.869 199.489 224.365 199.489 225.022C199.481 225.31 199.412 225.594 199.286 225.853C199.16 226.112 198.981 226.342 198.759 226.526H188.634C188.634 226.526 188.071 226.336 187.699 224.46C187.416 222.853 187.292 221.222 187.327 219.591C187.327 218.956 186.969 215.715 186.655 212.999Z" fill="#E7316F" stroke="#263238" stroke-linecap="round" stroke-linejoin="round"/>
<path d="M169.127 65.8603C169.127 65.8603 165.799 64.1156 163.287 67.6123C160.776 71.109 162.492 74.2699 162.492 75.2262C162.492 76.1825 158.688 79.3507 159.798 80.7815C160.908 82.2123 162.652 82.9715 162.492 83.6358C162.331 84.3001 157.893 83.3146 158.214 84.906C158.535 86.4974 158.842 89.0305 164.558 93.3156C170.273 97.6007 178.522 94.104 180.742 91.7242C182.961 89.3444 184.866 86.9646 184.552 85.5411C184.238 84.1176 182.012 84.5848 182.012 83.9497C182.012 83.3146 184.392 81.0954 184.392 79.8252C184.392 78.555 181.851 76.9709 181.691 76.1752C181.53 75.3795 182.961 74.2699 182.961 73.007C182.961 71.7441 179.785 70.1454 179.785 69.0358C179.785 67.9262 182.172 66.0209 178.522 63.4805C174.872 60.9401 169.96 62.8454 169.127 65.8603Z" fill="#263238" stroke="#263238" stroke-linecap="round" stroke-linejoin="round"/>
<path d="M168.128 85.5919L166.858 92.0451C166.858 92.0451 163.894 90.7749 163.047 90.4537C162.2 90.1325 159.74 126.771 159.74 126.771H183.327L182.056 90.6654L176.771 92.0451L175.18 85.4751L168.128 85.5919Z" fill="white" stroke="#263238" stroke-linecap="round" stroke-linejoin="round"/>
<path d="M177.114 102.63L178.048 91.7239L176.8 92.0524L175.209 85.4824L168.128 85.5919L166.857 92.0451L165.813 91.5998L166.96 102.623L177.114 102.63Z" fill="white" stroke="#263238" stroke-linecap="round" stroke-linejoin="round"/>
<path d="M167.332 86.8988C167.332 86.8988 171.573 90.9649 172.442 90.9649C173.311 90.9649 175.975 87.2565 175.975 87.2565L175.625 86.0155L167.332 85.8403V86.8988Z" fill="#263238" stroke="#263238" stroke-linecap="round" stroke-linejoin="round"/>
<path d="M153.645 61.0201L160.945 53.4208L158.857 47.7268C158.857 47.7268 160.93 43.8797 161.112 43.4417C161.295 43.0037 162.054 41.6824 162.054 41.6824C162.215 41.6724 162.376 41.6956 162.528 41.7507C162.68 41.8057 162.818 41.8913 162.935 42.0023C163.053 42.1132 163.146 42.247 163.209 42.3955C163.272 42.5439 163.304 42.7038 163.302 42.865C163.447 44.2718 163.471 45.6882 163.375 47.099C163.208 47.7487 165.04 51.333 164.31 52.939C163.58 54.545 156.127 64.7431 156.127 64.7431L153.645 61.0201Z" fill="white" stroke="#263238" stroke-linecap="round" stroke-linejoin="round"/>
<path d="M163.302 44.0039C163.302 44.0039 160.988 47.3473 161.01 47.6539C161.043 47.9372 161.097 48.2177 161.171 48.4934" stroke="#263238" stroke-linecap="round" stroke-linejoin="round"/>
<path d="M162.85 42.0254L159.769 46.5806L159.762 48.0625" stroke="#263238" stroke-linecap="round" stroke-linejoin="round"/>
<path d="M165.164 90.9869C165.164 90.9869 164.434 110.485 163.368 117.997C162.302 125.509 161.039 129.845 158.499 133.655C155.958 137.466 147.709 141.269 147.709 141.269C147.709 141.269 153.63 120.829 154.798 115.252C155.966 109.675 155.958 97.8708 155.958 97.8708C152.338 95.0251 149.143 91.6771 146.468 87.9282C142.242 81.8984 138.811 75.6715 138.993 74.7882C139.176 73.9049 155.783 57.896 155.783 57.896L159.192 62.495L149.951 76.584C149.951 76.584 158.608 86.6507 159.236 87.1763C159.864 87.7019 162.309 88.0304 165.164 90.9869Z" fill="#E7316F" stroke="#263238" stroke-linecap="round" stroke-linejoin="round"/>
<path d="M164.66 90.4902V90.5632C164.66 90.5632 161.171 97.0164 161.171 103.046C161.171 106.514 162.222 117.646 163.113 119.836C163.208 119.23 163.302 118.617 163.397 117.967C164.449 110.463 165.193 90.9574 165.193 90.9574C164.996 90.8114 164.85 90.6435 164.66 90.4902Z" fill="#E7316F" stroke="#263238" stroke-linecap="round" stroke-linejoin="round"/>
<path d="M190.049 60.8376L182.223 53.7201L183.91 47.8801C183.91 47.8801 181.588 44.179 181.376 43.7556C181.165 43.3322 180.318 42.062 180.318 42.062C180.156 42.0625 179.996 42.0965 179.847 42.1618C179.699 42.2272 179.566 42.3225 179.456 42.4418C179.347 42.5611 179.263 42.7017 179.21 42.855C179.157 43.0082 179.137 43.1707 179.15 43.3322C179.097 44.747 179.168 46.1637 179.362 47.5662C179.573 48.2013 177.989 51.9024 178.836 53.4865C179.683 55.0706 187.822 64.6993 187.822 64.6993L190.049 60.8376Z" fill="white" stroke="#263238" stroke-linecap="round" stroke-linejoin="round"/>
<path d="M179.26 44.5513C179.26 44.5513 181.8 47.7195 181.8 48.0407C181.785 48.3253 181.749 48.6084 181.691 48.8875" stroke="#263238" stroke-linecap="round" stroke-linejoin="round"/>
<path d="M179.574 42.5366L182.961 46.8801L183.064 48.3547" stroke="#263238" stroke-linecap="round" stroke-linejoin="round"/>
<path d="M179.392 90.9866C179.392 90.9866 180.122 110.485 181.187 117.997C182.253 125.508 183.516 129.845 186.056 133.655C188.597 137.466 196.846 141.269 196.846 141.269C196.846 141.269 190.918 120.829 189.758 115.252C188.597 109.675 188.59 97.8705 188.59 97.8705C192.212 95.0269 195.408 91.6786 198.08 87.9279C202.314 81.8981 207.497 74.839 207.183 73.9922C206.869 73.1454 188.203 58.4067 188.203 58.4067L185.553 63.5167L194.7 77.3867C194.7 77.3867 185.94 86.6942 185.283 87.2198C184.626 87.7454 182.246 88.0301 179.392 90.9866Z" fill="#E7316F" stroke="#263238" stroke-linecap="round" stroke-linejoin="round"/>
<path d="M159.739 91.0888C158.856 94.6366 155.958 97.8632 155.958 97.8632C155.958 97.8632 157.747 93.746 157.301 90.1982" stroke="#263238" stroke-linecap="round" stroke-linejoin="round"/>
<path d="M183.691 90.22C185.098 92.9128 186.737 95.4775 188.59 97.885C188.59 97.885 186.356 89.782 186.356 88.6724" stroke="#263238" stroke-linecap="round" stroke-linejoin="round"/>
<path d="M179.888 90.4902V90.5632C179.888 90.5632 183.377 97.0164 183.377 103.046C183.377 106.514 182.333 117.646 181.436 119.836C181.341 119.23 181.253 118.617 181.158 117.967C180.1 110.463 179.362 90.9574 179.362 90.9574C179.559 90.8114 179.727 90.6435 179.888 90.4902Z" fill="#E7316F" stroke="#263238" stroke-linecap="round" stroke-linejoin="round"/>
<path d="M165.054 79.1389C165.054 79.1389 162.944 76.0729 162.623 78.7155C162.302 81.3581 164.813 83.2634 164.813 83.2634L165.054 79.1389Z" fill="white" stroke="#263238" stroke-linecap="round" stroke-linejoin="round"/>
<path d="M179.341 78.5403C179.341 78.5403 181.137 76.7445 181.662 78.8542C182.188 80.9639 179.472 82.8765 179.472 82.8765L179.341 78.5403Z" fill="white" stroke="#263238" stroke-linecap="round" stroke-linejoin="round"/>
<path d="M169.763 68.7217C169.763 68.7217 169.288 71.4154 167.383 72.0505C166.397 72.3072 165.513 72.86 164.85 73.6346C164.85 73.6346 164.536 82.8399 165.171 83.7889C165.806 84.7379 169.96 88.7602 172.041 88.7602C174.121 88.7602 179.07 85.0518 179.231 84.1028C179.392 83.1538 179.129 74.2624 178.968 73.6273C178.808 72.9922 176.778 72.0432 174.997 72.0432C173.216 72.0432 171.829 70.1379 171.508 69.5028C171.186 68.8677 169.763 68.7217 169.763 68.7217Z" fill="white" stroke="#263238" stroke-linecap="round" stroke-linejoin="round"/>
<path d="M171.135 76.2844C171.553 76.6272 172.059 76.8471 172.595 76.9194C172.828 76.8975 173.053 76.8197 173.25 76.6927C173.447 76.5656 173.61 76.393 173.726 76.1895" stroke="#263238" stroke-linecap="round" stroke-linejoin="round"/>
<path d="M167.989 73.2551C168.062 73.0206 168.189 72.807 168.362 72.6324C168.534 72.4578 168.746 72.3274 168.98 72.2522C169.213 72.177 169.461 72.1592 169.703 72.2003C169.945 72.2415 170.174 72.3404 170.369 72.4886" stroke="#263238" stroke-linecap="round" stroke-linejoin="round"/>
<path d="M173.901 72.5617C173.901 72.5617 175.595 71.255 176.902 73.4815" stroke="#263238" stroke-linecap="round" stroke-linejoin="round"/>
<path d="M169.639 79.2703C169.639 79.2703 173.289 81.4603 175.668 78.4819" stroke="#263238" stroke-linecap="round" stroke-linejoin="round"/>
<path d="M169.712 73.9486C169.712 74.3866 169.464 74.7443 169.157 74.7443C168.851 74.7443 168.603 74.3866 168.603 73.9486C168.603 73.5106 168.851 73.1602 169.157 73.1602C169.464 73.1602 169.712 73.5106 169.712 73.9486Z" fill="#263238"/>
<path d="M175.581 74.0218C175.581 74.4598 175.333 74.8175 175.026 74.8175C174.72 74.8175 174.472 74.4598 174.472 74.0218C174.472 73.5838 174.72 73.2261 175.026 73.2261C175.333 73.2261 175.581 73.5838 175.581 74.0218Z" fill="#263238"/>
<path d="M211.497 225.212H127.087V273.443H211.497V225.212Z" fill="#FCE4EC" stroke="#263238" stroke-linecap="round" stroke-linejoin="round"/>
<path d="M260.991 272.18H77.5781V320.411H260.991V272.18Z" fill="#FCE4EC" stroke="#263238" stroke-linecap="round" stroke-linejoin="round"/>
<path d="M315.208 305.074H23.3682V353.305H315.208V305.074Z" fill="#FCE4EC" stroke="#263238" stroke-linecap="round" stroke-linejoin="round"/>
</g>
<defs>
<clipPath id="clip0_1065:1752">
<rect width="336" height="336" rx="10" fill="white"/>
</clipPath>
</defs>
</svg>
