<svg width="120" height="16" viewBox="0 0 120 16" fill="none" xmlns="http://www.w3.org/2000/svg">
<g clip-path="url(#clip0_1070:1541)">
<g clip-path="url(#clip1_1070:1541)">
<path d="M4.50773 0.586016C5.57902 0.554858 6.6435 0.766074 7.62172 1.2039C8.43038 1.58089 9.10686 2.19253 9.56314 2.95925C10.0227 3.7681 10.2533 4.68684 10.2302 5.61684C10.2284 6.23662 10.1362 6.85281 9.95634 7.44592C9.7782 8.05346 9.48237 8.62006 9.08568 9.1135C8.65786 9.63607 8.11141 10.0489 7.49183 10.3177C6.71406 10.6416 5.87653 10.7971 5.03434 10.7741H2.92792V15.4643H0V0.586016H4.50773ZM5.01327 7.90582C5.39775 7.91795 5.77948 7.83727 6.12617 7.6706C6.40327 7.53343 6.6439 7.33251 6.82831 7.08432C7.11929 6.67217 7.28397 6.18422 7.30225 5.68004C7.29579 5.47947 7.2723 5.27981 7.23204 5.08322C7.17599 4.81598 7.07636 4.55979 6.93714 4.32491C6.77392 4.05222 6.53974 3.82896 6.25957 3.67894C5.88232 3.48598 5.4611 3.3952 5.03785 3.41564H2.93143V7.90582H5.01327Z" fill="#5C56D4"/>
<path d="M9.66113 15.4646L16.3736 0H16.5351L23.2475 15.4646H19.8527L15.5661 4.58146L17.6725 3.12803L12.5539 15.4646H9.66113ZM14.2531 10.0897H18.7187L19.7509 12.5472H13.3403L14.2531 10.0897Z" fill="#5C56D4"/>
<path d="M23.1885 0.586426H33.215V3.41605H29.5955V15.4648H26.6816V3.41605H23.206L23.1885 0.586426Z" fill="#5C56D4"/>
<path d="M48.5598 0.586426V15.4648H45.6389V9.41934H38.9685V15.4648H36.0371V0.586426H38.9685V6.58972H45.6389V0.586426H48.5598Z" fill="#5C56D4"/>
<path d="M60.3451 4.1847C59.795 3.88152 59.2208 3.62436 58.6283 3.41586C58.0986 3.22541 57.5412 3.12341 56.9783 3.11394C56.4461 3.08599 55.9184 3.22466 55.4687 3.51065C55.2885 3.64133 55.1441 3.81537 55.049 4.01664C54.9539 4.21792 54.9111 4.43994 54.9245 4.66215C54.9253 4.83902 54.9625 5.01383 55.0338 5.17569C55.105 5.33756 55.2089 5.48302 55.3388 5.60302C55.6518 5.9072 56.0138 6.15644 56.4096 6.34027C56.8534 6.56117 57.3094 6.75691 57.7752 6.92655C58.2138 7.09336 58.6417 7.28681 59.0566 7.50582C59.477 7.72393 59.8627 8.00314 60.2011 8.33434C60.5512 8.68596 60.826 9.10525 61.0086 9.5666C61.2259 10.1439 61.3285 10.758 61.3105 11.3746C61.3161 12.1178 61.1129 12.8476 60.7242 13.481C60.3082 14.152 59.7138 14.6941 59.0075 15.0468C58.1347 15.4739 57.17 15.6789 56.1989 15.6436C55.6189 15.6427 55.0404 15.5851 54.4717 15.4716C53.2692 15.2333 52.1296 14.7466 51.126 14.0427L52.4214 11.7608C52.7795 12.0222 53.1615 12.249 53.5624 12.4383C53.9612 12.6288 54.3774 12.7805 54.8052 12.8912C55.1807 12.9935 55.5676 13.0478 55.9567 13.0527C56.313 13.0512 56.6675 13.0004 57.0099 12.9018C57.3579 12.8118 57.6748 12.6285 57.9262 12.3716C58.1721 12.0942 58.2983 11.7307 58.2773 11.3606C58.2772 11.0651 58.1728 10.7791 57.9824 10.5531C57.7605 10.2873 57.4945 10.0616 57.196 9.88607C56.8531 9.67656 56.491 9.50022 56.1147 9.35947C55.6548 9.18393 55.1843 8.98382 54.7104 8.75212C54.2245 8.52567 53.7663 8.24413 53.3447 7.91306C52.9073 7.57957 52.5468 7.15567 52.288 6.67027C52.0097 6.10932 51.8746 5.48816 51.8948 4.86226C51.8752 4.07559 52.0746 3.29894 52.4706 2.61893C52.8652 1.9797 53.429 1.4621 54.0995 1.12337C54.8508 0.739299 55.6785 0.528181 56.5219 0.505489C57.513 0.47293 58.502 0.616765 59.4428 0.930283C60.1494 1.19033 60.8242 1.52952 61.4544 1.94136L60.3451 4.1847Z" fill="#5C56D4"/>
<path d="M76.7012 0.586426V15.4648H73.7698V9.41934H67.117V15.4648H64.1855V0.586426H67.117V6.58972H73.7698V0.586426H76.7012Z" fill="#5C56D4"/>
<path d="M78.8643 15.4646L85.5767 0H85.7382L92.4471 15.4646H89.0523L84.7657 4.58146L86.8897 3.12803L81.7536 15.4646H78.8643ZM83.4527 10.0897H87.9218L88.9505 12.5472H82.5435L83.4527 10.0897Z" fill="#5C56D4"/>
<path d="M94.6133 0.586426H97.5447V12.6386H104.538V15.4683H94.6133V0.586426Z" fill="#5C56D4"/>
<path d="M105.894 15.4646L112.606 0H112.767L119.48 15.4646H116.082L111.795 4.58146L113.919 3.12803L108.783 15.4646H105.894ZM110.482 10.0897H114.951L115.98 12.5472H109.573L110.482 10.0897Z" fill="#5C56D4"/>
</g>
</g>
<defs>
<clipPath id="clip0_1070:1541">
<rect width="119.48" height="16" fill="white"/>
</clipPath>
<clipPath id="clip1_1070:1541">
<rect width="119.48" height="32" fill="white"/>
</clipPath>
</defs>
</svg>
